<?xml version="1.0" encoding="UTF-8"?>
<svg xmlns="http://www.w3.org/2000/svg" width="255" height="82" viewBox="0 0 255 82" fill="none"> <path d="M0.799805 0.711914H37.0878V15.4959H30.1438V32.4079H51.4238V15.4959H44.8158V0.711914H81.2158V15.4959H74.7198V64.2159H81.2158V78.9999H44.8158V64.2159H51.4238V47.3039H30.1438V64.2159H37.0878V78.9999H0.799805V64.2159H6.9598V15.4959H0.799805V0.711914ZM142.993 71.2719C138.961 74.7812 134.63 77.2826 130.001 78.7759C125.371 80.2692 120.07 81.0159 114.097 81.0159C109.169 81.0159 104.427 79.9332 99.8726 77.7679C95.3926 75.6026 91.6966 72.2426 88.7846 67.6879C85.9472 63.1332 84.5286 57.4586 84.5286 50.6639C84.5286 44.6906 85.8352 39.5012 88.4486 35.0959C91.1366 30.6906 94.7579 27.3306 99.3126 25.0159C103.867 22.6266 108.982 21.4319 114.657 21.4319C121.227 21.4319 126.902 22.9626 131.681 26.0239C136.534 29.0106 139.782 32.8932 141.425 37.6719C142.47 40.8079 142.993 44.2799 142.993 48.0879C142.993 51.4479 142.545 54.2852 141.649 56.5999H106.369C106.891 59.1386 107.899 61.3039 109.393 63.0959C110.961 64.8879 113.798 65.7839 117.905 65.7839C120.593 65.7839 123.206 65.4479 125.745 64.7759C128.283 64.1039 130.897 62.6479 133.585 60.4079L142.993 71.2719ZM115.329 36.5519C112.342 36.5519 110.177 37.5226 108.833 39.4639C107.563 41.4052 106.854 43.4212 106.705 45.5119H123.617C123.542 42.8239 122.945 40.6586 121.825 39.0159C120.705 37.3732 118.539 36.5519 115.329 36.5519ZM179.168 78.9999H147.472V64.3279H152.4V37.5599H147.584V22.9999H168.64L172 30.1679C173.12 28.0772 174.277 26.3972 175.472 25.1279C176.667 23.8586 178.347 22.8506 180.512 22.1039C182.752 21.3572 185.701 20.9839 189.36 20.9839V40.3599C183.984 40.3599 179.989 41.2559 177.376 43.0479C174.837 44.8399 173.568 48.0879 173.568 52.7919V64.3279H179.168V78.9999ZM223.527 80.4559C218.076 80.4559 212.962 79.3359 208.183 77.0959C203.404 74.8559 199.559 71.5332 196.647 67.1279C193.735 62.7226 192.279 57.4212 192.279 51.2239C192.279 45.1012 193.698 39.8372 196.535 35.4319C199.447 30.9519 203.255 27.5546 207.959 25.2399C212.663 22.8506 217.666 21.6559 222.967 21.6559C228.94 21.7306 234.279 22.9626 238.983 25.3519C243.687 27.7412 247.383 31.1759 250.071 35.6559C252.759 40.1359 254.103 45.4746 254.103 51.6719C254.103 57.6452 252.759 62.7972 250.071 67.1279C247.383 71.4586 243.687 74.7812 238.983 77.0959C234.354 79.3359 229.202 80.4559 223.527 80.4559ZM223.527 66.1199C225.842 66.1199 227.671 64.7386 229.015 61.9759C230.434 59.1386 231.143 55.5546 231.143 51.2239C231.143 46.8932 230.396 43.3466 228.903 40.5839C227.484 37.7466 225.506 36.2906 222.967 36.2159C220.802 36.2159 218.972 37.6346 217.479 40.4719C215.986 43.3092 215.239 46.7812 215.239 50.8879C215.239 55.4426 216.023 59.1386 217.591 61.9759C219.159 64.7386 221.138 66.1199 223.527 66.1199Z" fill="url(#paint0_linear_49_3)"/> <defs> <linearGradient id="paint0_linear_49_3" x1="12.5813" y1="7.60368" x2="193.55" y2="155.24" gradientUnits="userSpaceOnUse"> <stop stop-color="#2B00FF"/> <stop offset="1" stop-color="#A400FF"/> </linearGradient> </defs> </svg>