<?xml version="1.0" encoding="UTF-8"?>
<svg xmlns="http://www.w3.org/2000/svg" width="355" height="45" viewBox="0 0 355 45" fill="none"> <path d="M17.608 0.599997L17.8549 0.560499L17.8212 0.349997H17.608V0.599997ZM7.626 0.599997V0.349997H7.41282L7.37914 0.560499L7.626 0.599997ZM0.682 44L0.43514 43.9605L0.38882 44.25H0.682V44ZM6.944 44V44.25H7.15938L7.19125 44.037L6.944 44ZM8.122 36.126V35.876H7.90662L7.87475 36.089L8.122 36.126ZM16.492 36.126L16.7392 36.089L16.7074 35.876H16.492V36.126ZM17.67 44L17.4228 44.037L17.4546 44.25H17.67V44ZM24.552 44V44.25H24.8452L24.7989 43.9605L24.552 44ZM12.276 8.288L12.5232 8.25098H12.0288L12.276 8.288ZM15.562 30.236V30.486H15.8522L15.8092 30.199L15.562 30.236ZM8.99 30.236L8.74276 30.199L8.69978 30.486H8.99V30.236ZM17.608 0.349997H7.626V0.849997H17.608V0.349997ZM7.37914 0.560499L0.43514 43.9605L0.92886 44.0395L7.87286 0.639495L7.37914 0.560499ZM0.682 44.25H6.944V43.75H0.682V44.25ZM7.19125 44.037L8.36925 36.163L7.87475 36.089L6.69675 43.963L7.19125 44.037ZM8.122 36.376H16.492V35.876H8.122V36.376ZM16.2448 36.163L17.4228 44.037L17.9172 43.963L16.7392 36.089L16.2448 36.163ZM17.67 44.25H24.552V43.75H17.67V44.25ZM24.7989 43.9605L17.8549 0.560499L17.3611 0.639495L24.3051 44.0395L24.7989 43.9605ZM12.0288 8.32501L15.3148 30.273L15.8092 30.199L12.5232 8.25098L12.0288 8.32501ZM15.562 29.986H8.99V30.486H15.562V29.986ZM9.23724 30.273L12.5232 8.32501L12.0288 8.25098L8.74276 30.199L9.23724 30.273ZM27.728 0.599997V0.349997H27.478V0.599997H27.728ZM27.728 44H27.478V44.25H27.728V44ZM43.724 20.874L43.6178 20.6477L43.0903 20.8953L43.6332 21.1069L43.724 20.874ZM34.548 37.8H34.298V38.05H34.548V37.8ZM34.548 24.47V24.22H34.298V24.47H34.548ZM34.548 18.27H34.298V18.52H34.548V18.27ZM34.548 6.8V6.55H34.298V6.8H34.548ZM38.02 0.349997H27.728V0.849997H38.02V0.349997ZM27.478 0.599997V44H27.978V0.599997H27.478ZM27.728 44.25H38.454V43.75H27.728V44.25ZM38.454 44.25C41.906 44.25 44.5676 43.3395 46.3653 41.5418C48.163 39.7441 49.058 37.0979 49.058 33.708H48.558C48.558 37.0141 47.6861 39.5139 46.0118 41.1882C44.3375 42.8625 41.8221 43.75 38.454 43.75V44.25ZM49.058 33.708V30.174H48.558V33.708H49.058ZM49.058 30.174C49.058 27.8571 48.6985 25.8447 47.8599 24.2234C47.0178 22.5954 45.6997 21.3759 43.8148 20.6411L43.6332 21.1069C45.4064 21.7981 46.6303 22.9346 47.4157 24.4531C48.2046 25.9783 48.558 27.9029 48.558 30.174H49.058ZM43.8303 21.1003C45.3988 20.364 46.5416 19.2548 47.2881 17.7536C48.0319 16.258 48.376 14.387 48.376 12.132H47.876C47.876 14.341 47.5382 16.128 46.8405 17.5309C46.1455 18.9282 45.0873 19.958 43.6178 20.6477L43.8303 21.1003ZM48.376 12.132V10.582H47.876V12.132H48.376ZM48.376 10.582C48.376 7.20144 47.6096 4.62866 45.9012 2.90405C44.1923 1.17903 41.5879 0.349997 38.02 0.349997V0.849997C41.5202 0.849997 43.9688 1.66396 45.5459 3.25594C47.1235 4.84833 47.876 7.26655 47.876 10.582H48.376ZM37.586 24.72C39.1113 24.72 40.1201 25.0265 40.7615 25.7585C41.4117 26.5006 41.738 27.7384 41.738 29.74H42.238C42.238 27.7116 41.9134 26.3144 41.1376 25.429C40.353 24.5335 39.1608 24.22 37.586 24.22V24.72ZM41.738 29.74V33.522H42.238V29.74H41.738ZM41.738 33.522C41.738 35.1111 41.4307 36.1049 40.895 36.7032C40.3659 37.2942 39.5672 37.55 38.454 37.55V38.05C39.6349 38.05 40.6032 37.7788 41.2676 37.0368C41.9254 36.3021 42.238 35.1569 42.238 33.522H41.738ZM38.454 37.55H34.548V38.05H38.454V37.55ZM34.798 37.8V24.47H34.298V37.8H34.798ZM34.548 24.72H37.586V24.22H34.548V24.72ZM37.834 7.05C38.995 7.05 39.7764 7.37516 40.2793 8.02284C40.7938 8.68525 41.056 9.7326 41.056 11.264H41.556C41.556 9.6954 41.2913 8.51075 40.6742 7.71616C40.0457 6.90684 39.0911 6.55 37.834 6.55V7.05ZM41.056 11.264V13.682H41.556V11.264H41.056ZM41.056 13.682C41.056 15.387 40.6747 16.456 40.0356 17.1022C39.3975 17.7472 38.454 18.02 37.214 18.02V18.52C38.5161 18.52 39.6186 18.2347 40.391 17.4538C41.1624 16.674 41.556 15.449 41.556 13.682H41.056ZM37.214 18.02H34.548V18.52H37.214V18.02ZM34.798 18.27V6.8H34.298V18.27H34.798ZM34.548 7.05H37.834V6.55H34.548V7.05ZM59.4275 10.582C59.4275 9.06304 59.7624 8.06506 60.3168 7.4475C60.8664 6.83537 61.6708 6.554 62.7115 6.554V6.054C61.5822 6.054 60.6197 6.36163 59.9448 7.11349C59.2747 7.85994 58.9275 9.00095 58.9275 10.582H59.4275ZM62.7115 6.554C63.7522 6.554 64.5567 6.83537 65.1063 7.4475C65.6607 8.06506 65.9955 9.06304 65.9955 10.582H66.4955C66.4955 9.00095 66.1484 7.85994 65.4783 7.11349C64.8034 6.36163 63.8408 6.054 62.7115 6.054V6.554ZM65.9955 10.582V34.018H66.4955V10.582H65.9955ZM65.9955 34.018C65.9955 35.537 65.6607 36.5349 65.1063 37.1525C64.5567 37.7646 63.7522 38.046 62.7115 38.046V38.546C63.8408 38.546 64.8034 38.2384 65.4783 37.4865C66.1484 36.7401 66.4955 35.599 66.4955 34.018H65.9955ZM62.7115 38.046C61.6708 38.046 60.8664 37.7646 60.3168 37.1525C59.7624 36.5349 59.4275 35.537 59.4275 34.018H58.9275C58.9275 35.599 59.2747 36.7401 59.9448 37.4865C60.6197 38.2384 61.5822 38.546 62.7115 38.546V38.046ZM59.4275 34.018V10.582H58.9275V34.018H59.4275ZM52.1075 33.584C52.1075 37.0977 53.0333 39.8952 54.8415 41.8154C56.652 43.7379 59.3137 44.746 62.7115 44.746V44.246C59.4134 44.246 56.8981 43.2701 55.2056 41.4726C53.5108 39.6728 52.6075 37.0143 52.6075 33.584H52.1075ZM62.7115 44.746C66.1094 44.746 68.7711 43.7379 70.5816 41.8154C72.3898 39.8952 73.3155 37.0977 73.3155 33.584H72.8155C72.8155 37.0143 71.9123 39.6728 70.2175 41.4726C68.525 43.2701 66.0097 44.246 62.7115 44.246V44.746ZM73.3155 33.584V11.016H72.8155V33.584H73.3155ZM73.3155 11.016C73.3155 7.50228 72.3898 4.70484 70.5816 2.78461C68.7711 0.862049 66.1094 -0.146 62.7115 -0.146V0.354C66.0097 0.354 68.525 1.32995 70.2175 3.12739C71.9123 4.92715 72.8155 7.58571 72.8155 11.016H73.3155ZM62.7115 -0.146C59.3137 -0.146 56.652 0.862049 54.8415 2.78461C53.0333 4.70484 52.1075 7.50228 52.1075 11.016H52.6075C52.6075 7.58571 53.5108 4.92715 55.2056 3.12739C56.8981 1.32995 59.4134 0.354 62.7115 0.354V-0.146ZM52.1075 11.016V33.584H52.6075V11.016H52.1075ZM77.1876 0.599997V0.349997H76.9376V0.599997H77.1876ZM97.5236 0.599997H97.7736V0.349997H97.5236V0.599997ZM91.0756 0.599997V0.349997H90.8256V0.599997H91.0756ZM84.0076 0.599997H84.2576V0.349997H84.0076V0.599997ZM76.9376 0.599997V33.646H77.4376V0.599997H76.9376ZM76.9376 33.646C76.9376 37.1565 77.8152 39.9537 79.5763 41.8749C81.3407 43.7997 83.9575 44.808 87.3556 44.808V44.308C84.0576 44.308 81.5905 43.3323 79.9449 41.5371C78.296 39.7383 77.4376 37.0795 77.4376 33.646H76.9376ZM87.3556 44.808C90.7536 44.808 93.3705 43.7997 95.1349 41.8749C96.896 39.9537 97.7736 37.1565 97.7736 33.646H97.2736C97.2736 37.0795 96.4152 39.7383 94.7663 41.5371C93.1207 43.3323 90.6535 44.308 87.3556 44.308V44.808ZM97.7736 33.646V0.599997H97.2736V33.646H97.7736ZM97.5236 0.349997H91.0756V0.849997H97.5236V0.349997ZM90.8256 0.599997V34.08H91.3256V0.599997H90.8256ZM90.8256 34.08C90.8256 35.5992 90.4906 36.58 89.9382 37.1814C89.39 37.7782 88.5858 38.046 87.5416 38.046V38.546C88.6673 38.546 89.6301 38.2558 90.3064 37.5196C90.9786 36.788 91.3256 35.6608 91.3256 34.08H90.8256ZM87.5416 38.046C86.4973 38.046 85.6931 37.7782 85.1449 37.1814C84.5926 36.58 84.2576 35.5992 84.2576 34.08H83.7576C83.7576 35.6608 84.1046 36.788 84.7767 37.5196C85.453 38.2558 86.4158 38.546 87.5416 38.546V38.046ZM84.2576 34.08V0.599997H83.7576V34.08H84.2576ZM84.0076 0.349997H77.1876V0.849997H84.0076V0.349997ZM100.217 6.8H99.9667V7.05H100.217V6.8ZM107.347 6.8H107.597V6.55H107.347V6.8ZM107.347 44H107.097V44.25H107.347V44ZM114.167 44V44.25H114.417V44H114.167ZM114.167 6.8V6.55H113.917V6.8H114.167ZM121.297 6.8V7.05H121.547V6.8H121.297ZM121.297 0.599997H121.547V0.349997H121.297V0.599997ZM100.217 0.599997V0.349997H99.9667V0.599997H100.217ZM100.217 7.05H107.347V6.55H100.217V7.05ZM107.097 6.8V44H107.597V6.8H107.097ZM107.347 44.25H114.167V43.75H107.347V44.25ZM114.417 44V6.8H113.917V44H114.417ZM114.167 7.05H121.297V6.55H114.167V7.05ZM121.547 6.8V0.599997H121.047V6.8H121.547ZM121.297 0.349997H100.217V0.849997H121.297V0.349997ZM99.9667 0.599997V6.8H100.467V0.599997H99.9667ZM131.943 6.8H131.693V7.05H131.943V6.8ZM139.073 6.8H139.323V6.55H139.073V6.8ZM139.073 44H138.823V44.25H139.073V44ZM145.893 44V44.25H146.143V44H145.893ZM145.893 6.8V6.55H145.643V6.8H145.893ZM153.023 6.8V7.05H153.273V6.8H153.023ZM153.023 0.599997H153.273V0.349997H153.023V0.599997ZM131.943 0.599997V0.349997H131.693V0.599997H131.943ZM131.943 7.05H139.073V6.55H131.943V7.05ZM138.823 6.8V44H139.323V6.8H138.823ZM139.073 44.25H145.893V43.75H139.073V44.25ZM146.143 44V6.8H145.643V44H146.143ZM145.893 7.05H153.023V6.55H145.893V7.05ZM153.273 6.8V0.599997H152.773V6.8H153.273ZM153.023 0.349997H131.943V0.849997H153.023V0.349997ZM131.693 0.599997V6.8H132.193V0.599997H131.693ZM162.847 25.4V25.15H162.597V25.4H162.847ZM170.597 25.4H170.847V25.15H170.597V25.4ZM170.597 44H170.347V44.25H170.597V44ZM177.541 44V44.25H177.791V44H177.541ZM177.541 0.599997H177.791V0.349997H177.541V0.599997ZM170.597 0.599997V0.349997H170.347V0.599997H170.597ZM170.597 19.2V19.45H170.847V19.2H170.597ZM162.847 19.2H162.597V19.45H162.847V19.2ZM162.847 0.599997H163.097V0.349997H162.847V0.599997ZM156.027 0.599997V0.349997H155.777V0.599997H156.027ZM156.027 44H155.777V44.25H156.027V44ZM162.847 44V44.25H163.097V44H162.847ZM162.847 25.65H170.597V25.15H162.847V25.65ZM170.347 25.4V44H170.847V25.4H170.347ZM170.597 44.25H177.541V43.75H170.597V44.25ZM177.791 44V0.599997H177.291V44H177.791ZM177.541 0.349997H170.597V0.849997H177.541V0.349997ZM170.347 0.599997V19.2H170.847V0.599997H170.347ZM170.597 18.95H162.847V19.45H170.597V18.95ZM163.097 19.2V0.599997H162.597V19.2H163.097ZM162.847 0.349997H156.027V0.849997H162.847V0.349997ZM155.777 0.599997V44H156.277V0.599997H155.777ZM156.027 44.25H162.847V43.75H156.027V44.25ZM163.097 44V25.4H162.597V44H163.097ZM189.306 6.8V6.55H189.056V6.8H189.306ZM201.086 6.8V7.05H201.336V6.8H201.086ZM201.086 0.599997H201.336V0.349997H201.086V0.599997ZM182.486 0.599997V0.349997H182.236V0.599997H182.486ZM182.486 44H182.236V44.25H182.486V44ZM201.086 44V44.25H201.336V44H201.086ZM201.086 37.8H201.336V37.55H201.086V37.8ZM189.306 37.8H189.056V38.05H189.306V37.8ZM189.306 25.09V24.84H189.056V25.09H189.306ZM198.668 25.09V25.34H198.918V25.09H198.668ZM198.668 18.89H198.918V18.64H198.668V18.89ZM189.306 18.89H189.056V19.14H189.306V18.89ZM189.306 7.05H201.086V6.55H189.306V7.05ZM201.336 6.8V0.599997H200.836V6.8H201.336ZM201.086 0.349997H182.486V0.849997H201.086V0.349997ZM182.236 0.599997V44H182.736V0.599997H182.236ZM182.486 44.25H201.086V43.75H182.486V44.25ZM201.336 44V37.8H200.836V44H201.336ZM201.086 37.55H189.306V38.05H201.086V37.55ZM189.556 37.8V25.09H189.056V37.8H189.556ZM189.306 25.34H198.668V24.84H189.306V25.34ZM198.918 25.09V18.89H198.418V25.09H198.918ZM198.668 18.64H189.306V19.14H198.668V18.64ZM189.556 18.89V6.8H189.056V18.89H189.556ZM228.269 27.818V27.568H228.019V27.818H228.269ZM228.269 15.232H228.019V15.482H228.269V15.232ZM234.717 15.232V15.482H234.967V15.232H234.717ZM234.717 27.818H234.967V27.568H234.717V27.818ZM228.019 27.818V34.018H228.519V27.818H228.019ZM228.019 34.018C228.019 35.5372 227.684 36.518 227.132 37.1194C226.583 37.7162 225.779 37.984 224.735 37.984V38.484C225.861 38.484 226.824 38.1938 227.5 37.4576C228.172 36.726 228.519 35.5988 228.519 34.018H228.019ZM224.735 37.984C223.691 37.984 222.887 37.7162 222.338 37.1194C221.786 36.518 221.451 35.5372 221.451 34.018H220.951C220.951 35.5988 221.298 36.726 221.97 37.4576C222.646 38.1938 223.609 38.484 224.735 38.484V37.984ZM221.451 34.018V10.582H220.951V34.018H221.451ZM221.451 10.582C221.451 9.06304 221.786 8.06506 222.34 7.4475C222.89 6.83537 223.694 6.554 224.735 6.554V6.054C223.606 6.054 222.643 6.36163 221.968 7.11349C221.298 7.85994 220.951 9.00095 220.951 10.582H221.451ZM224.735 6.554C225.776 6.554 226.58 6.83537 227.13 7.4475C227.684 8.06506 228.019 9.06304 228.019 10.582H228.519C228.519 9.00095 228.172 7.85994 227.502 7.11349C226.827 6.36163 225.864 6.054 224.735 6.054V6.554ZM228.019 10.582V15.232H228.519V10.582H228.019ZM228.269 15.482H234.717V14.982H228.269V15.482ZM234.967 15.232V11.016H234.467V15.232H234.967ZM234.967 11.016C234.967 7.50546 234.089 4.70825 232.328 2.78707C230.564 0.862289 227.947 -0.146 224.549 -0.146V0.354C227.847 0.354 230.314 1.32971 231.96 3.12493C233.609 4.92374 234.467 7.58253 234.467 11.016H234.967ZM224.549 -0.146C221.151 -0.146 218.534 0.862289 216.77 2.78707C215.009 4.70825 214.131 7.50546 214.131 11.016H214.631C214.631 7.58253 215.489 4.92374 217.138 3.12493C218.784 1.32971 221.251 0.354 224.549 0.354V-0.146ZM214.131 11.016V33.584H214.631V11.016H214.131ZM214.131 33.584C214.131 37.0945 215.009 39.8917 216.77 41.8129C218.534 43.7377 221.151 44.746 224.549 44.746V44.246C221.251 44.246 218.784 43.2703 217.138 41.4751C215.489 39.6763 214.631 37.0175 214.631 33.584H214.131ZM224.549 44.746C227.947 44.746 230.564 43.7377 232.328 41.8129C234.089 39.8917 234.967 37.0945 234.967 33.584H234.467C234.467 37.0175 233.609 39.6763 231.96 41.4751C230.314 43.2703 227.847 44.246 224.549 44.246V44.746ZM234.967 33.584V27.818H234.467V33.584H234.967ZM234.717 27.568H228.269V28.068H234.717V27.568ZM245.367 10.582C245.367 9.06304 245.702 8.06506 246.256 7.4475C246.806 6.83537 247.61 6.554 248.651 6.554V6.054C247.522 6.054 246.559 6.36163 245.884 7.11349C245.214 7.85994 244.867 9.00095 244.867 10.582H245.367ZM248.651 6.554C249.692 6.554 250.496 6.83537 251.046 7.4475C251.6 8.06506 251.935 9.06304 251.935 10.582H252.435C252.435 9.00095 252.088 7.85994 251.418 7.11349C250.743 6.36163 249.78 6.054 248.651 6.054V6.554ZM251.935 10.582V34.018H252.435V10.582H251.935ZM251.935 34.018C251.935 35.537 251.6 36.5349 251.046 37.1525C250.496 37.7646 249.692 38.046 248.651 38.046V38.546C249.78 38.546 250.743 38.2384 251.418 37.4865C252.088 36.7401 252.435 35.599 252.435 34.018H251.935ZM248.651 38.046C247.61 38.046 246.806 37.7646 246.256 37.1525C245.702 36.5349 245.367 35.537 245.367 34.018H244.867C244.867 35.599 245.214 36.7401 245.884 37.4865C246.559 38.2384 247.522 38.546 248.651 38.546V38.046ZM245.367 34.018V10.582H244.867V34.018H245.367ZM238.047 33.584C238.047 37.0977 238.973 39.8952 240.781 41.8154C242.591 43.7379 245.253 44.746 248.651 44.746V44.246C245.353 44.246 242.838 43.2701 241.145 41.4726C239.45 39.6728 238.547 37.0143 238.547 33.584H238.047ZM248.651 44.746C252.049 44.746 254.711 43.7379 256.521 41.8154C258.329 39.8952 259.255 37.0977 259.255 33.584H258.755C258.755 37.0143 257.852 39.6728 256.157 41.4726C254.464 43.2701 251.949 44.246 248.651 44.246V44.746ZM259.255 33.584V11.016H258.755V33.584H259.255ZM259.255 11.016C259.255 7.50228 258.329 4.70484 256.521 2.78461C254.711 0.862049 252.049 -0.146 248.651 -0.146V0.354C251.949 0.354 254.464 1.32995 256.157 3.12739C257.852 4.92715 258.755 7.58571 258.755 11.016H259.255ZM248.651 -0.146C245.253 -0.146 242.591 0.862049 240.781 2.78461C238.973 4.70484 238.047 7.50228 238.047 11.016H238.547C238.547 7.58571 239.45 4.92715 241.145 3.12739C242.838 1.32995 245.353 0.354 248.651 0.354V-0.146ZM238.047 11.016V33.584H238.547V11.016H238.047ZM263.127 0.599997V0.349997H262.877V0.599997H263.127ZM283.463 0.599997H283.713V0.349997H283.463V0.599997ZM277.015 0.599997V0.349997H276.765V0.599997H277.015ZM269.947 0.599997H270.197V0.349997H269.947V0.599997ZM262.877 0.599997V33.646H263.377V0.599997H262.877ZM262.877 33.646C262.877 37.1565 263.755 39.9537 265.516 41.8749C267.28 43.7997 269.897 44.808 273.295 44.808V44.308C269.997 44.308 267.53 43.3323 265.884 41.5371C264.235 39.7383 263.377 37.0795 263.377 33.646H262.877ZM273.295 44.808C276.693 44.808 279.31 43.7997 281.074 41.8749C282.835 39.9537 283.713 37.1565 283.713 33.646H283.213C283.213 37.0795 282.355 39.7383 280.706 41.5371C279.06 43.3323 276.593 44.308 273.295 44.308V44.808ZM283.713 33.646V0.599997H283.213V33.646H283.713ZM283.463 0.349997H277.015V0.849997H283.463V0.349997ZM276.765 0.599997V34.08H277.265V0.599997H276.765ZM276.765 34.08C276.765 35.5992 276.43 36.58 275.878 37.1814C275.329 37.7782 274.525 38.046 273.481 38.046V38.546C274.607 38.546 275.57 38.2558 276.246 37.5196C276.918 36.788 277.265 35.6608 277.265 34.08H276.765ZM273.481 38.046C272.437 38.046 271.633 37.7782 271.084 37.1814C270.532 36.58 270.197 35.5992 270.197 34.08H269.697C269.697 35.6608 270.044 36.788 270.716 37.5196C271.392 38.2558 272.355 38.546 273.481 38.546V38.046ZM270.197 34.08V0.599997H269.697V34.08H270.197ZM269.947 0.349997H263.127V0.849997H269.947V0.349997ZM309.344 44V44.25H309.721L309.574 43.9026L309.344 44ZM304.074 22.796L303.968 22.5697L303.458 22.8092L303.978 23.0266L304.074 22.796ZM288.14 0.599997V0.349997H287.89V0.599997H288.14ZM288.14 44H287.89V44.25H288.14V44ZM294.96 44V44.25H295.21V44H294.96ZM294.96 26.33V26.08H294.71V26.33H294.96ZM302.4 44L302.163 44.0791L302.22 44.25H302.4V44ZM294.96 20.13H294.71V20.38H294.96V20.13ZM294.96 6.8V6.55H294.71V6.8H294.96ZM309.574 43.9026C308.914 42.342 308.85 40.8383 308.85 38.73H308.35C308.35 40.8377 308.41 42.434 309.114 44.0974L309.574 43.9026ZM308.85 38.73V32.034H308.35V38.73H308.85ZM308.85 32.034C308.85 27.4807 307.727 24.0524 304.171 22.5654L303.978 23.0266C307.242 24.3916 308.35 27.5353 308.35 32.034H308.85ZM304.18 23.0223C307.339 21.5397 308.788 18.5103 308.788 13.992H308.288C308.288 18.4017 306.885 21.2003 303.968 22.5697L304.18 23.0223ZM308.788 13.992V10.582H308.288V13.992H308.788ZM308.788 10.582C308.788 7.20144 308.022 4.62866 306.313 2.90405C304.604 1.17903 302 0.349997 298.432 0.349997V0.849997C301.932 0.849997 304.381 1.66396 305.958 3.25594C307.536 4.84833 308.288 7.26655 308.288 10.582H308.788ZM298.432 0.349997H288.14V0.849997H298.432V0.349997ZM287.89 0.599997V44H288.39V0.599997H287.89ZM288.14 44.25H294.96V43.75H288.14V44.25ZM295.21 44V26.33H294.71V44H295.21ZM294.96 26.58H297.316V26.08H294.96V26.58ZM297.316 26.58C298.83 26.58 299.857 26.9428 300.518 27.7376C301.19 28.5446 301.53 29.8501 301.53 31.848H302.03C302.03 29.8159 301.689 28.3624 300.903 27.4179C300.107 26.4612 298.903 26.08 297.316 26.08V26.58ZM301.53 31.848V38.668H302.03V31.848H301.53ZM301.53 38.668C301.53 40.4387 301.592 41.5068 301.703 42.2765C301.815 43.0522 301.977 43.52 302.163 44.0791L302.637 43.9209C302.452 43.364 302.303 42.9328 302.198 42.205C302.092 41.4712 302.03 40.4313 302.03 38.668H301.53ZM302.4 44.25H309.344V43.75H302.4V44.25ZM298.246 7.05C299.407 7.05 300.188 7.37516 300.691 8.02284C301.206 8.68525 301.468 9.7326 301.468 11.264H301.968C301.968 9.6954 301.703 8.51075 301.086 7.71616C300.458 6.90684 299.503 6.55 298.246 6.55V7.05ZM301.468 11.264V15.542H301.968V11.264H301.468ZM301.468 15.542C301.468 17.247 301.087 18.316 300.448 18.9622C299.81 19.6072 298.866 19.88 297.626 19.88V20.38C298.928 20.38 300.031 20.0947 300.803 19.3138C301.574 18.534 301.968 17.309 301.968 15.542H301.468ZM297.626 19.88H294.96V20.38H297.626V19.88ZM295.21 20.13V6.8H294.71V20.13H295.21ZM294.96 7.05H298.246V6.55H294.96V7.05ZM318.479 30.918H318.729V30.668H318.479V30.918ZM312.031 30.918V30.668H311.781V30.918H312.031ZM325.857 12.38H325.607V12.63H325.857V12.38ZM332.305 12.38V12.63H332.555V12.38H332.305ZM311.967 11.016C311.967 17.3277 315.371 20.9099 318.713 24.0025C320.39 25.5548 322.034 26.9694 323.267 28.5547C324.493 30.1303 325.297 31.8564 325.297 34.018H325.797C325.797 31.7156 324.935 29.8844 323.662 28.2477C322.396 26.6206 320.708 25.1677 319.052 23.6355C315.729 20.5591 312.467 17.1043 312.467 11.016H311.967ZM325.297 34.018C325.297 35.5372 324.962 36.518 324.41 37.1194C323.862 37.7162 323.058 37.984 322.013 37.984V38.484C323.139 38.484 324.102 38.1938 324.778 37.4576C325.45 36.726 325.797 35.5988 325.797 34.018H325.297ZM322.013 37.984C320.969 37.984 320.165 37.7162 319.617 37.1194C319.064 36.518 318.729 35.5372 318.729 34.018H318.229C318.229 35.5988 318.576 36.726 319.249 37.4576C319.925 38.1938 320.888 38.484 322.013 38.484V37.984ZM318.729 34.018V30.918H318.229V34.018H318.729ZM318.479 30.668H312.031V31.168H318.479V30.668ZM311.781 30.918V33.584H312.281V30.918H311.781ZM311.781 33.584C311.781 37.0945 312.659 39.8917 314.42 41.8129C316.185 43.7377 318.801 44.746 322.199 44.746V44.246C318.902 44.246 316.434 43.2703 314.789 41.4751C313.14 39.6763 312.281 37.0175 312.281 33.584H311.781ZM322.199 44.746C325.598 44.746 328.214 43.7377 329.979 41.8129C331.74 39.8917 332.617 37.0945 332.617 33.584H332.117C332.117 37.0175 331.259 39.6763 329.61 41.4751C327.965 43.2703 325.497 44.246 322.199 44.246V44.746ZM332.617 33.584C332.617 27.2723 329.214 23.6901 325.872 20.5975C324.195 19.0452 322.551 17.6306 321.318 16.0453C320.092 14.4697 319.287 12.7436 319.287 10.582H318.787C318.787 12.8844 319.65 14.7156 320.923 16.3523C322.189 17.9794 323.877 19.4323 325.533 20.9645C328.856 24.0409 332.117 27.4957 332.117 33.584H332.617ZM319.287 10.582C319.287 9.05792 319.594 8.05918 320.119 7.44266C320.637 6.83492 321.407 6.554 322.447 6.554V6.054C321.318 6.054 320.383 6.36208 319.738 7.11833C319.101 7.86581 318.787 9.00607 318.787 10.582H319.287ZM322.447 6.554C323.488 6.554 324.258 6.83492 324.776 7.44266C325.301 8.05918 325.607 9.05792 325.607 10.582H326.107C326.107 9.00607 325.794 7.86581 325.156 7.11833C324.512 6.36208 323.577 6.054 322.447 6.054V6.554ZM325.607 10.582V12.38H326.107V10.582H325.607ZM325.857 12.63H332.305V12.13H325.857V12.63ZM332.555 12.38V11.016H332.055V12.38H332.555ZM332.555 11.016C332.555 7.50652 331.694 4.70968 329.957 2.78833C328.216 0.86278 325.629 -0.146 322.261 -0.146V0.354C325.528 0.354 327.963 1.32922 329.586 3.12367C331.212 4.92231 332.055 7.58148 332.055 11.016H332.555ZM322.261 -0.146C318.894 -0.146 316.307 0.86278 314.566 2.78833C312.829 4.70968 311.967 7.50652 311.967 11.016H312.467C312.467 7.58148 313.311 4.92231 314.937 3.12367C316.56 1.32922 318.995 0.354 322.261 0.354V-0.146ZM343.095 6.8V6.55H342.845V6.8H343.095ZM354.875 6.8V7.05H355.125V6.8H354.875ZM354.875 0.599997H355.125V0.349997H354.875V0.599997ZM336.275 0.599997V0.349997H336.025V0.599997H336.275ZM336.275 44H336.025V44.25H336.275V44ZM354.875 44V44.25H355.125V44H354.875ZM354.875 37.8H355.125V37.55H354.875V37.8ZM343.095 37.8H342.845V38.05H343.095V37.8ZM343.095 25.09V24.84H342.845V25.09H343.095ZM352.457 25.09V25.34H352.707V25.09H352.457ZM352.457 18.89H352.707V18.64H352.457V18.89ZM343.095 18.89H342.845V19.14H343.095V18.89ZM343.095 7.05H354.875V6.55H343.095V7.05ZM355.125 6.8V0.599997H354.625V6.8H355.125ZM354.875 0.349997H336.275V0.849997H354.875V0.349997ZM336.025 0.599997V44H336.525V0.599997H336.025ZM336.275 44.25H354.875V43.75H336.275V44.25ZM355.125 44V37.8H354.625V44H355.125ZM354.875 37.55H343.095V38.05H354.875V37.55ZM343.345 37.8V25.09H342.845V37.8H343.345ZM343.095 25.34H352.457V24.84H343.095V25.34ZM352.707 25.09V18.89H352.207V25.09H352.707ZM352.457 18.64H343.095V19.14H352.457V18.64ZM343.345 18.89V6.8H342.845V18.89H343.345Z" fill="white"/> </svg>