<?xml version="1.0" encoding="UTF-8"?>
<svg xmlns="http://www.w3.org/2000/svg" width="116" height="44" viewBox="0 0 116 44" fill="none"> <path d="M17.608 0.599997L17.8549 0.560499L17.8212 0.349997H17.608V0.599997ZM7.626 0.599997V0.349997H7.41282L7.37914 0.560499L7.626 0.599997ZM0.682 44L0.43514 43.9605L0.38882 44.25H0.682V44ZM6.944 44V44.25H7.15938L7.19125 44.037L6.944 44ZM8.122 36.126V35.876H7.90662L7.87475 36.089L8.122 36.126ZM16.492 36.126L16.7392 36.089L16.7074 35.876H16.492V36.126ZM17.67 44L17.4228 44.037L17.4546 44.25H17.67V44ZM24.552 44V44.25H24.8452L24.7989 43.9605L24.552 44ZM12.276 8.288L12.5232 8.25098H12.0288L12.276 8.288ZM15.562 30.236V30.486H15.8522L15.8092 30.199L15.562 30.236ZM8.99 30.236L8.74276 30.199L8.69978 30.486H8.99V30.236ZM17.608 0.349997H7.626V0.849997H17.608V0.349997ZM7.37914 0.560499L0.43514 43.9605L0.92886 44.0395L7.87286 0.639495L7.37914 0.560499ZM0.682 44.25H6.944V43.75H0.682V44.25ZM7.19125 44.037L8.36925 36.163L7.87475 36.089L6.69675 43.963L7.19125 44.037ZM8.122 36.376H16.492V35.876H8.122V36.376ZM16.2448 36.163L17.4228 44.037L17.9172 43.963L16.7392 36.089L16.2448 36.163ZM17.67 44.25H24.552V43.75H17.67V44.25ZM24.7989 43.9605L17.8549 0.560499L17.3611 0.639495L24.3051 44.0395L24.7989 43.9605ZM12.0288 8.32501L15.3148 30.273L15.8092 30.199L12.5232 8.25098L12.0288 8.32501ZM15.562 29.986H8.99V30.486H15.562V29.986ZM9.23724 30.273L12.5232 8.32501L12.0288 8.25098L8.74276 30.199L9.23724 30.273ZM34.548 6.8V6.55H34.298V6.8H34.548ZM45.77 6.8V7.05H46.02V6.8H45.77ZM45.77 0.599997H46.02V0.349997H45.77V0.599997ZM27.728 0.599997V0.349997H27.478V0.599997H27.728ZM27.728 44H27.478V44.25H27.728V44ZM34.548 44V44.25H34.798V44H34.548ZM34.548 26.082V25.832H34.298V26.082H34.548ZM43.352 26.082V26.332H43.602V26.082H43.352ZM43.352 19.882H43.602V19.632H43.352V19.882ZM34.548 19.882H34.298V20.132H34.548V19.882ZM34.548 7.05H45.77V6.55H34.548V7.05ZM46.02 6.8V0.599997H45.52V6.8H46.02ZM45.77 0.349997H27.728V0.849997H45.77V0.349997ZM27.478 0.599997V44H27.978V0.599997H27.478ZM27.728 44.25H34.548V43.75H27.728V44.25ZM34.798 44V26.082H34.298V44H34.798ZM34.548 26.332H43.352V25.832H34.548V26.332ZM43.602 26.082V19.882H43.102V26.082H43.602ZM43.352 19.632H34.548V20.132H43.352V19.632ZM34.798 19.882V6.8H34.298V19.882H34.798ZM47.0565 6.8H46.8065V7.05H47.0565V6.8ZM54.1865 6.8H54.4365V6.55H54.1865V6.8ZM54.1865 44H53.9365V44.25H54.1865V44ZM61.0065 44V44.25H61.2565V44H61.0065ZM61.0065 6.8V6.55H60.7565V6.8H61.0065ZM68.1365 6.8V7.05H68.3865V6.8H68.1365ZM68.1365 0.599997H68.3865V0.349997H68.1365V0.599997ZM47.0565 0.599997V0.349997H46.8065V0.599997H47.0565ZM47.0565 7.05H54.1865V6.55H47.0565V7.05ZM53.9365 6.8V44H54.4365V6.8H53.9365ZM54.1865 44.25H61.0065V43.75H54.1865V44.25ZM61.2565 44V6.8H60.7565V44H61.2565ZM61.0065 7.05H68.1365V6.55H61.0065V7.05ZM68.3865 6.8V0.599997H67.8865V6.8H68.3865ZM68.1365 0.349997H47.0565V0.849997H68.1365V0.349997ZM46.8065 0.599997V6.8H47.3065V0.599997H46.8065ZM77.9602 6.8V6.55H77.7102V6.8H77.9602ZM89.7402 6.8V7.05H89.9902V6.8H89.7402ZM89.7402 0.599997H89.9902V0.349997H89.7402V0.599997ZM71.1402 0.599997V0.349997H70.8902V0.599997H71.1402ZM71.1402 44H70.8902V44.25H71.1402V44ZM89.7402 44V44.25H89.9902V44H89.7402ZM89.7402 37.8H89.9902V37.55H89.7402V37.8ZM77.9602 37.8H77.7102V38.05H77.9602V37.8ZM77.9602 25.09V24.84H77.7102V25.09H77.9602ZM87.3222 25.09V25.34H87.5722V25.09H87.3222ZM87.3222 18.89H87.5722V18.64H87.3222V18.89ZM77.9602 18.89H77.7102V19.14H77.9602V18.89ZM77.9602 7.05H89.7402V6.55H77.9602V7.05ZM89.9902 6.8V0.599997H89.4902V6.8H89.9902ZM89.7402 0.349997H71.1402V0.849997H89.7402V0.349997ZM70.8902 0.599997V44H71.3902V0.599997H70.8902ZM71.1402 44.25H89.7402V43.75H71.1402V44.25ZM89.9902 44V37.8H89.4902V44H89.9902ZM89.7402 37.55H77.9602V38.05H89.7402V37.55ZM78.2102 37.8V25.09H77.7102V37.8H78.2102ZM77.9602 25.34H87.3222V24.84H77.9602V25.34ZM87.5722 25.09V18.89H87.0722V25.09H87.5722ZM87.3222 18.64H77.9602V19.14H87.3222V18.64ZM78.2102 18.89V6.8H77.7102V18.89H78.2102ZM115.17 44V44.25H115.548L115.401 43.9026L115.17 44ZM109.9 22.796L109.794 22.5697L109.284 22.8092L109.804 23.0266L109.9 22.796ZM93.9663 0.599997V0.349997H93.7163V0.599997H93.9663ZM93.9663 44H93.7163V44.25H93.9663V44ZM100.786 44V44.25H101.036V44H100.786ZM100.786 26.33V26.08H100.536V26.33H100.786ZM108.226 44L107.989 44.0791L108.046 44.25H108.226V44ZM100.786 20.13H100.536V20.38H100.786V20.13ZM100.786 6.8V6.55H100.536V6.8H100.786ZM115.401 43.9026C114.74 42.342 114.676 40.8383 114.676 38.73H114.176C114.176 40.8377 114.236 42.434 114.94 44.0974L115.401 43.9026ZM114.676 38.73V32.034H114.176V38.73H114.676ZM114.676 32.034C114.676 27.4807 113.553 24.0524 109.997 22.5654L109.804 23.0266C113.068 24.3916 114.176 27.5353 114.176 32.034H114.676ZM110.007 23.0223C113.165 21.5397 114.614 18.5103 114.614 13.992H114.114C114.114 18.4017 112.711 21.2003 109.794 22.5697L110.007 23.0223ZM114.614 13.992V10.582H114.114V13.992H114.614ZM114.614 10.582C114.614 7.20144 113.848 4.62866 112.139 2.90405C110.431 1.17903 107.826 0.349997 104.258 0.349997V0.849997C107.758 0.849997 110.207 1.66396 111.784 3.25594C113.362 4.84833 114.114 7.26655 114.114 10.582H114.614ZM104.258 0.349997H93.9663V0.849997H104.258V0.349997ZM93.7163 0.599997V44H94.2163V0.599997H93.7163ZM93.9663 44.25H100.786V43.75H93.9663V44.25ZM101.036 44V26.33H100.536V44H101.036ZM100.786 26.58H103.142V26.08H100.786V26.58ZM103.142 26.58C104.656 26.58 105.683 26.9428 106.345 27.7376C107.016 28.5446 107.356 29.8501 107.356 31.848H107.856C107.856 29.8159 107.515 28.3624 106.729 27.4179C105.933 26.4612 104.729 26.08 103.142 26.08V26.58ZM107.356 31.848V38.668H107.856V31.848H107.356ZM107.356 38.668C107.356 40.4387 107.418 41.5068 107.529 42.2765C107.641 43.0522 107.803 43.52 107.989 44.0791L108.463 43.9209C108.278 43.364 108.129 42.9328 108.024 42.205C107.918 41.4712 107.856 40.4313 107.856 38.668H107.356ZM108.226 44.25H115.17V43.75H108.226V44.25ZM104.072 7.05C105.233 7.05 106.015 7.37516 106.518 8.02284C107.032 8.68525 107.294 9.7326 107.294 11.264H107.794C107.794 9.6954 107.53 8.51075 106.913 7.71616C106.284 6.90684 105.329 6.55 104.072 6.55V7.05ZM107.294 11.264V15.542H107.794V11.264H107.294ZM107.294 15.542C107.294 17.247 106.913 18.316 106.274 18.9622C105.636 19.6072 104.692 19.88 103.452 19.88V20.38C104.754 20.38 105.857 20.0947 106.629 19.3138C107.401 18.534 107.794 17.309 107.794 15.542H107.294ZM103.452 19.88H100.786V20.38H103.452V19.88ZM101.036 20.13V6.8H100.536V20.13H101.036ZM100.786 7.05H104.072V6.55H100.786V7.05Z" fill="white"/> </svg>