<?xml version="1.0" encoding="UTF-8"?>
<svg xmlns="http://www.w3.org/2000/svg" width="331" height="104" viewBox="0 0 331 104" fill="none"> <path d="M185.086 90.6513L185.798 93.0478L185.086 90.6513ZM330.697 5.12613C330.817 3.75063 329.799 2.53834 328.423 2.4184L306.008 0.463756C304.633 0.34381 303.421 1.36163 303.301 2.73712C303.181 4.11261 304.199 5.32491 305.574 5.44485L325.499 7.18231L323.761 27.1067C323.641 28.4822 324.659 29.6945 326.034 29.8144C327.41 29.9344 328.622 28.9166 328.742 27.5411L330.697 5.12613ZM1 93.0029C0.6028 95.4712 0.603565 95.4713 0.604765 95.4715C0.605746 95.4716 0.607381 95.4719 0.60934 95.4722C0.613259 95.4729 0.618913 95.4738 0.626293 95.4749C0.641053 95.4773 0.662718 95.4808 0.69121 95.4853C0.748195 95.4943 0.832494 95.5076 0.943501 95.525C1.16551 95.5597 1.49437 95.6107 1.92521 95.6761C2.78689 95.8069 4.0566 95.9955 5.69556 96.2278C8.97337 96.6925 13.7288 97.3323 19.6514 98.0348C31.495 99.4394 48.0156 101.095 66.7286 102.101C104.074 104.109 150.457 103.547 185.798 93.0478L184.374 88.2549C149.901 98.4963 104.242 99.1105 66.997 97.1085C48.4153 96.1097 32.0045 94.4648 20.2403 93.0696C14.3591 92.3721 9.64157 91.7373 6.39741 91.2773C4.77538 91.0474 3.52185 90.8612 2.67553 90.7327C2.25238 90.6685 1.93105 90.6187 1.71637 90.5851C1.60904 90.5683 1.52837 90.5556 1.47497 90.5471C1.44827 90.5428 1.42839 90.5397 1.4154 90.5376C1.40891 90.5366 1.40414 90.5358 1.4011 90.5353C1.39958 90.5351 1.39861 90.5349 1.39785 90.5348C1.39731 90.5347 1.3972 90.5347 1 93.0029ZM185.798 93.0478C217.914 83.5066 253.962 61.8811 281.851 42.7744C295.826 33.2004 307.808 24.2192 316.298 17.6307C320.544 14.3359 323.918 11.6383 326.233 9.76239C327.39 8.82443 328.283 8.09184 328.888 7.5927C329.19 7.34313 329.42 7.15191 329.575 7.02256C329.653 6.95789 329.712 6.90867 329.752 6.87537C329.772 6.85871 329.787 6.84604 329.797 6.83739C329.802 6.83307 329.806 6.82975 329.809 6.82745C329.811 6.8263 329.812 6.82534 329.812 6.82476C329.813 6.82405 329.814 6.8236 328.206 4.90894C326.599 2.99429 326.599 2.99434 326.598 2.99466C326.598 2.9951 326.597 2.99566 326.596 2.99655C326.594 2.99831 326.591 3.0011 326.586 3.00488C326.577 3.01246 326.563 3.02406 326.545 3.03963C326.507 3.07077 326.451 3.1178 326.376 3.18027C326.226 3.3052 326.001 3.49191 325.704 3.73689C325.111 4.22684 324.23 4.94983 323.085 5.87781C320.794 7.73384 317.448 10.4095 313.233 13.6806C304.801 20.2237 292.9 29.1439 279.025 38.6495C251.216 57.7018 215.703 78.9475 184.374 88.2549L185.798 93.0478Z" fill="white"/> </svg>