<?xml version="1.0" encoding="UTF-8"?>
<svg xmlns="http://www.w3.org/2000/svg" width="24" height="24" viewBox="0 0 24 24" fill="none"> <mask id="mask0_328_1422" style="mask-type:alpha" maskUnits="userSpaceOnUse" x="2" y="1" width="20" height="22"> <path d="M8 2V5" stroke="#292D32" stroke-width="1.5" stroke-miterlimit="10" stroke-linecap="round" stroke-linejoin="round"/> <path d="M16 2V5" stroke="#292D32" stroke-width="1.5" stroke-miterlimit="10" stroke-linecap="round" stroke-linejoin="round"/> <path d="M3.5 9.08984H20.5" stroke="#292D32" stroke-width="1.5" stroke-miterlimit="10" stroke-linecap="round" stroke-linejoin="round"/> <path d="M21 8.5V17C21 20 19.5 22 16 22H8C4.5 22 3 20 3 17V8.5C3 5.5 4.5 3.5 8 3.5H16C19.5 3.5 21 5.5 21 8.5Z" stroke="#292D32" stroke-width="1.5" stroke-miterlimit="10" stroke-linecap="round" stroke-linejoin="round"/> <path d="M11.9955 13.7002H12.0045" stroke="#292D32" stroke-width="2" stroke-linecap="round" stroke-linejoin="round"/> <path d="M8.29431 13.7002H8.30329" stroke="#292D32" stroke-width="2" stroke-linecap="round" stroke-linejoin="round"/> <path d="M8.29492 16.7002H8.3039" stroke="#292D32" stroke-width="2" stroke-linecap="round" stroke-linejoin="round"/> </mask> <g mask="url(#mask0_328_1422)"> <rect width="24" height="24" fill="url(#paint0_linear_328_1422)"/> </g> <defs> <linearGradient id="paint0_linear_328_1422" x1="-0.392157" y1="9.62376" x2="24.0248" y2="9.89586" gradientUnits="userSpaceOnUse"> <stop stop-color="#ED1CFD"/> <stop offset="1" stop-color="#0B0BEC"/> </linearGradient> </defs> </svg>