<?xml version="1.0" encoding="UTF-8"?>
<svg xmlns="http://www.w3.org/2000/svg" width="163" height="45" viewBox="0 0 163 45" fill="none"> <path d="M7.3 6.8V6.55H7.05V6.8H7.3ZM19.08 6.8V7.05H19.33V6.8H19.08ZM19.08 0.599997H19.33V0.349997H19.08V0.599997ZM0.48 0.599997V0.349997H0.23V0.599997H0.48ZM0.48 44H0.23V44.25H0.48V44ZM19.08 44V44.25H19.33V44H19.08ZM19.08 37.8H19.33V37.55H19.08V37.8ZM7.3 37.8H7.05V38.05H7.3V37.8ZM7.3 25.09V24.84H7.05V25.09H7.3ZM16.662 25.09V25.34H16.912V25.09H16.662ZM16.662 18.89H16.912V18.64H16.662V18.89ZM7.3 18.89H7.05V19.14H7.3V18.89ZM7.3 7.05H19.08V6.55H7.3V7.05ZM19.33 6.8V0.599997H18.83V6.8H19.33ZM19.08 0.349997H0.48V0.849997H19.08V0.349997ZM0.23 0.599997V44H0.73V0.599997H0.23ZM0.48 44.25H19.08V43.75H0.48V44.25ZM19.33 44V37.8H18.83V44H19.33ZM19.08 37.55H7.3V38.05H19.08V37.55ZM7.55 37.8V25.09H7.05V37.8H7.55ZM7.3 25.34H16.662V24.84H7.3V25.34ZM16.912 25.09V18.89H16.412V25.09H16.912ZM16.662 18.64H7.3V19.14H16.662V18.64ZM7.55 18.89V6.8H7.05V18.89H7.55ZM39.7362 0.599997V0.349997H39.5553L39.4987 0.521769L39.7362 0.599997ZM34.4662 16.596L34.2282 16.6726L34.4633 17.4035L34.7036 16.6742L34.4662 16.596ZM29.3202 0.599997L29.5582 0.523435L29.5024 0.349997H29.3202V0.599997ZM22.2522 0.599997V0.349997H21.9037L22.0154 0.680098L22.2522 0.599997ZM29.3822 21.68L29.6187 21.7608L29.6462 21.6804L29.619 21.5999L29.3822 21.68ZM21.7562 44L21.5196 43.9192L21.4066 44.25H21.7562V44ZM28.1422 44V44.25H28.3232L28.3797 44.078L28.1422 44ZM33.7842 26.826L34.0219 26.7487L33.7855 26.021L33.5467 26.748L33.7842 26.826ZM39.3642 44L39.1264 44.0773L39.1825 44.25H39.3642V44ZM46.5562 44V44.25H46.9058L46.7927 43.9192L46.5562 44ZM38.9302 21.68L38.6934 21.5999L38.6661 21.6804L38.6936 21.7608L38.9302 21.68ZM46.0602 0.599997L46.297 0.680098L46.4086 0.349997H46.0602V0.599997ZM39.4987 0.521769L34.2287 16.5178L34.7036 16.6742L39.9736 0.678225L39.4987 0.521769ZM34.7042 16.5194L29.5582 0.523435L29.0822 0.676559L34.2282 16.6726L34.7042 16.5194ZM29.3202 0.349997H22.2522V0.849997H29.3202V0.349997ZM22.0154 0.680098L29.1454 21.7601L29.619 21.5999L22.489 0.519896L22.0154 0.680098ZM29.1456 21.5992L21.5196 43.9192L21.9927 44.0808L29.6187 21.7608L29.1456 21.5992ZM21.7562 44.25H28.1422V43.75H21.7562V44.25ZM28.3797 44.078L34.0217 26.904L33.5467 26.748L27.9047 43.922L28.3797 44.078ZM33.5464 26.9033L39.1264 44.0773L39.6019 43.9227L34.0219 26.7487L33.5464 26.9033ZM39.3642 44.25H46.5562V43.75H39.3642V44.25ZM46.7927 43.9192L39.1667 21.5992L38.6936 21.7608L46.3196 44.0808L46.7927 43.9192ZM39.167 21.7601L46.297 0.680098L45.8234 0.519896L38.6934 21.5999L39.167 21.7601ZM46.0602 0.349997H39.7362V0.849997H46.0602V0.349997ZM49.9468 0.599997V0.349997H49.6968V0.599997H49.9468ZM49.9468 44H49.6968V44.25H49.9468V44ZM56.7668 44V44.25H57.0168V44H56.7668ZM56.7668 27.694V27.444H56.5168V27.694H56.7668ZM56.7668 21.494H56.5168V21.744H56.7668V21.494ZM56.7668 6.8V6.55H56.5168V6.8H56.7668ZM59.9908 0.349997H49.9468V0.849997H59.9908V0.349997ZM49.6968 0.599997V44H50.1968V0.599997H49.6968ZM49.9468 44.25H56.7668V43.75H49.9468V44.25ZM57.0168 44V27.694H56.5168V44H57.0168ZM56.7668 27.944H59.9908V27.444H56.7668V27.944ZM59.9908 27.944C63.4463 27.944 66.0643 26.9849 67.8152 25.1054C69.5632 23.2291 70.4088 20.4764 70.4088 16.968H69.9088C69.9088 20.4036 69.0804 23.0139 67.4494 24.7646C65.8213 26.5121 63.3553 27.444 59.9908 27.444V27.944ZM70.4088 16.968V11.326H69.9088V16.968H70.4088ZM70.4088 11.326C70.4088 7.81764 69.5632 5.06486 67.8152 3.18858C66.0643 1.30913 63.4463 0.349997 59.9908 0.349997V0.849997C63.3553 0.849997 65.8213 1.78186 67.4494 3.52941C69.0804 5.28014 69.9088 7.89035 69.9088 11.326H70.4088ZM59.9908 7.05C61.0422 7.05 61.7939 7.29037 62.2918 7.84973C62.7967 8.41688 63.0888 9.36421 63.0888 10.892H63.5888C63.5888 9.31978 63.2919 8.22111 62.6653 7.51727C62.0317 6.80562 61.1094 6.55 59.9908 6.55V7.05ZM63.0888 10.892V17.402H63.5888V10.892H63.0888ZM63.0888 17.402C63.0888 18.9298 62.7967 19.8771 62.2918 20.4443C61.7939 21.0036 61.0422 21.244 59.9908 21.244V21.744C61.1094 21.744 62.0317 21.4884 62.6653 20.7767C63.2919 20.0729 63.5888 18.9742 63.5888 17.402H63.0888ZM59.9908 21.244H56.7668V21.744H59.9908V21.244ZM57.0168 21.494V6.8H56.5168V21.494H57.0168ZM56.7668 7.05H59.9908V6.55H56.7668V7.05ZM80.4406 6.8V6.55H80.1906V6.8H80.4406ZM92.2206 6.8V7.05H92.4706V6.8H92.2206ZM92.2206 0.599997H92.4706V0.349997H92.2206V0.599997ZM73.6206 0.599997V0.349997H73.3706V0.599997H73.6206ZM73.6206 44H73.3706V44.25H73.6206V44ZM92.2206 44V44.25H92.4706V44H92.2206ZM92.2206 37.8H92.4706V37.55H92.2206V37.8ZM80.4406 37.8H80.1906V38.05H80.4406V37.8ZM80.4406 25.09V24.84H80.1906V25.09H80.4406ZM89.8026 25.09V25.34H90.0526V25.09H89.8026ZM89.8026 18.89H90.0526V18.64H89.8026V18.89ZM80.4406 18.89H80.1906V19.14H80.4406V18.89ZM80.4406 7.05H92.2206V6.55H80.4406V7.05ZM92.4706 6.8V0.599997H91.9706V6.8H92.4706ZM92.2206 0.349997H73.6206V0.849997H92.2206V0.349997ZM73.3706 0.599997V44H73.8706V0.599997H73.3706ZM73.6206 44.25H92.2206V43.75H73.6206V44.25ZM92.4706 44V37.8H91.9706V44H92.4706ZM92.2206 37.55H80.4406V38.05H92.2206V37.55ZM80.6906 37.8V25.09H80.1906V37.8H80.6906ZM80.4406 25.34H89.8026V24.84H80.4406V25.34ZM90.0526 25.09V18.89H89.5526V25.09H90.0526ZM89.8026 18.64H80.4406V19.14H89.8026V18.64ZM80.6906 18.89V6.8H80.1906V18.89H80.6906ZM117.651 44V44.25H118.028L117.881 43.9026L117.651 44ZM112.381 22.796L112.275 22.5697L111.764 22.8092L112.284 23.0266L112.381 22.796ZM96.4468 0.599997V0.349997H96.1968V0.599997H96.4468ZM96.4468 44H96.1968V44.25H96.4468V44ZM103.267 44V44.25H103.517V44H103.267ZM103.267 26.33V26.08H103.017V26.33H103.267ZM110.707 44L110.47 44.0791L110.527 44.25H110.707V44ZM103.267 20.13H103.017V20.38H103.267V20.13ZM103.267 6.8V6.55H103.017V6.8H103.267ZM117.881 43.9026C117.221 42.342 117.157 40.8383 117.157 38.73H116.657C116.657 40.8377 116.717 42.434 117.421 44.0974L117.881 43.9026ZM117.157 38.73V32.034H116.657V38.73H117.157ZM117.157 32.034C117.157 27.4807 116.033 24.0524 112.477 22.5654L112.284 23.0266C115.548 24.3916 116.657 27.5353 116.657 32.034H117.157ZM112.487 23.0223C115.646 21.5397 117.095 18.5103 117.095 13.992H116.595C116.595 18.4017 115.192 21.2003 112.275 22.5697L112.487 23.0223ZM117.095 13.992V10.582H116.595V13.992H117.095ZM117.095 10.582C117.095 7.20144 116.328 4.62866 114.62 2.90405C112.911 1.17903 110.307 0.349997 106.739 0.349997V0.849997C110.239 0.849997 112.688 1.66396 114.265 3.25594C115.842 4.84833 116.595 7.26655 116.595 10.582H117.095ZM106.739 0.349997H96.4468V0.849997H106.739V0.349997ZM96.1968 0.599997V44H96.6968V0.599997H96.1968ZM96.4468 44.25H103.267V43.75H96.4468V44.25ZM103.517 44V26.33H103.017V44H103.517ZM103.267 26.58H105.623V26.08H103.267V26.58ZM105.623 26.58C107.136 26.58 108.164 26.9428 108.825 27.7376C109.496 28.5446 109.837 29.8501 109.837 31.848H110.337C110.337 29.8159 109.995 28.3624 109.209 27.4179C108.414 26.4612 107.209 26.08 105.623 26.08V26.58ZM109.837 31.848V38.668H110.337V31.848H109.837ZM109.837 38.668C109.837 40.4387 109.899 41.5068 110.01 42.2765C110.122 43.0522 110.283 43.52 110.47 44.0791L110.944 43.9209C110.758 43.364 110.61 42.9328 110.505 42.205C110.399 41.4712 110.337 40.4313 110.337 38.668H109.837ZM110.707 44.25H117.651V43.75H110.707V44.25ZM106.553 7.05C107.714 7.05 108.495 7.37516 108.998 8.02284C109.513 8.68525 109.775 9.7326 109.775 11.264H110.275C110.275 9.6954 110.01 8.51075 109.393 7.71616C108.764 6.90684 107.81 6.55 106.553 6.55V7.05ZM109.775 11.264V15.542H110.275V11.264H109.775ZM109.775 15.542C109.775 17.247 109.393 18.316 108.754 18.9622C108.116 19.6072 107.173 19.88 105.933 19.88V20.38C107.235 20.38 108.337 20.0947 109.11 19.3138C109.881 18.534 110.275 17.309 110.275 15.542H109.775ZM105.933 19.88H103.267V20.38H105.933V19.88ZM103.517 20.13V6.8H103.017V20.13H103.517ZM103.267 7.05H106.553V6.55H103.267V7.05ZM119.408 6.8H119.158V7.05H119.408V6.8ZM126.538 6.8H126.788V6.55H126.538V6.8ZM126.538 44H126.288V44.25H126.538V44ZM133.358 44V44.25H133.608V44H133.358ZM133.358 6.8V6.55H133.108V6.8H133.358ZM140.488 6.8V7.05H140.738V6.8H140.488ZM140.488 0.599997H140.738V0.349997H140.488V0.599997ZM119.408 0.599997V0.349997H119.158V0.599997H119.408ZM119.408 7.05H126.538V6.55H119.408V7.05ZM126.288 6.8V44H126.788V6.8H126.288ZM126.538 44.25H133.358V43.75H126.538V44.25ZM133.608 44V6.8H133.108V44H133.608ZM133.358 7.05H140.488V6.55H133.358V7.05ZM140.738 6.8V0.599997H140.238V6.8H140.738ZM140.488 0.349997H119.408V0.849997H140.488V0.349997ZM119.158 0.599997V6.8H119.658V0.599997H119.158ZM148.886 30.918H149.136V30.668H148.886V30.918ZM142.438 30.918V30.668H142.188V30.918H142.438ZM156.264 12.38H156.014V12.63H156.264V12.38ZM162.712 12.38V12.63H162.962V12.38H162.712ZM142.374 11.016C142.374 17.3277 145.778 20.9099 149.119 24.0025C150.796 25.5548 152.44 26.9694 153.674 28.5547C154.9 30.1303 155.704 31.8564 155.704 34.018H156.204C156.204 31.7156 155.342 29.8844 154.068 28.2477C152.802 26.6206 151.114 25.1677 149.459 23.6355C146.135 20.5591 142.874 17.1043 142.874 11.016H142.374ZM155.704 34.018C155.704 35.5372 155.369 36.518 154.816 37.1194C154.268 37.7162 153.464 37.984 152.42 37.984V38.484C153.545 38.484 154.508 38.1938 155.185 37.4576C155.857 36.726 156.204 35.5988 156.204 34.018H155.704ZM152.42 37.984C151.375 37.984 150.571 37.7162 150.023 37.1194C149.471 36.518 149.136 35.5372 149.136 34.018H148.636C148.636 35.5988 148.983 36.726 149.655 37.4576C150.331 38.1938 151.294 38.484 152.42 38.484V37.984ZM149.136 34.018V30.918H148.636V34.018H149.136ZM148.886 30.668H142.438V31.168H148.886V30.668ZM142.188 30.918V33.584H142.688V30.918H142.188ZM142.188 33.584C142.188 37.0945 143.065 39.8917 144.826 41.8129C146.591 43.7377 149.208 44.746 152.606 44.746V44.246C149.308 44.246 146.841 43.2703 145.195 41.4751C143.546 39.6763 142.688 37.0175 142.688 33.584H142.188ZM152.606 44.746C156.004 44.746 158.621 43.7377 160.385 41.8129C162.146 39.8917 163.024 37.0945 163.024 33.584H162.524C162.524 37.0175 161.665 39.6763 160.016 41.4751C158.371 43.2703 155.904 44.246 152.606 44.246V44.746ZM163.024 33.584C163.024 27.2723 159.62 23.6901 156.279 20.5975C154.601 19.0452 152.957 17.6306 151.724 16.0453C150.498 14.4697 149.694 12.7436 149.694 10.582H149.194C149.194 12.8844 150.056 14.7156 151.329 16.3523C152.595 17.9794 154.284 19.4323 155.939 20.9645C159.263 24.0409 162.524 27.4957 162.524 33.584H163.024ZM149.694 10.582C149.694 9.05792 150 8.05918 150.525 7.44266C151.043 6.83492 151.813 6.554 152.854 6.554V6.054C151.724 6.054 150.789 6.36208 150.145 7.11833C149.508 7.86581 149.194 9.00607 149.194 10.582H149.694ZM152.854 6.554C153.894 6.554 154.664 6.83492 155.182 7.44266C155.708 8.05918 156.014 9.05792 156.014 10.582H156.514C156.514 9.00607 156.2 7.86581 155.563 7.11833C154.918 6.36208 153.983 6.054 152.854 6.054V6.554ZM156.014 10.582V12.38H156.514V10.582H156.014ZM156.264 12.63H162.712V12.13H156.264V12.63ZM162.962 12.38V11.016H162.462V12.38H162.962ZM162.962 11.016C162.962 7.50652 162.1 4.70968 160.363 2.78833C158.622 0.86278 156.036 -0.146 152.668 -0.146V0.354C155.934 0.354 158.37 1.32922 159.992 3.12367C161.618 4.92231 162.462 7.58148 162.462 11.016H162.962ZM152.668 -0.146C149.3 -0.146 146.714 0.86278 144.973 2.78833C143.235 4.70968 142.374 7.50652 142.374 11.016H142.874C142.874 7.58148 143.717 4.92231 145.343 3.12367C146.966 1.32922 149.402 0.354 152.668 0.354V-0.146Z" fill="white"/> </svg>