<?xml version="1.0" encoding="UTF-8"?>
<svg xmlns="http://www.w3.org/2000/svg" width="68" height="47" viewBox="0 0 68 47" fill="none"> <path d="M7.3 6.8V6.55H7.05V6.8H7.3ZM18.522 6.8V7.05H18.772V6.8H18.522ZM18.522 0.599997H18.772V0.349997H18.522V0.599997ZM0.48 0.599997V0.349997H0.23V0.599997H0.48ZM0.48 44H0.23V44.25H0.48V44ZM7.3 44V44.25H7.55V44H7.3ZM7.3 26.082V25.832H7.05V26.082H7.3ZM16.104 26.082V26.332H16.354V26.082H16.104ZM16.104 19.882H16.354V19.632H16.104V19.882ZM7.3 19.882H7.05V20.132H7.3V19.882ZM7.3 7.05H18.522V6.55H7.3V7.05ZM18.772 6.8V0.599997H18.272V6.8H18.772ZM18.522 0.349997H0.48V0.849997H18.522V0.349997ZM0.23 0.599997V44H0.73V0.599997H0.23ZM0.48 44.25H7.3V43.75H0.48V44.25ZM7.55 44V26.082H7.05V44H7.55ZM7.3 26.332H16.104V25.832H7.3V26.332ZM16.354 26.082V19.882H15.854V26.082H16.354ZM16.104 19.632H7.3V20.132H16.104V19.632ZM7.55 19.882V6.8H7.05V19.882H7.55ZM36.1334 0.599997L36.3803 0.560499L36.3466 0.349997H36.1334V0.599997ZM26.1514 0.599997V0.349997H25.9382L25.9045 0.560499L26.1514 0.599997ZM19.2074 44L18.9605 43.9605L18.9142 44.25H19.2074V44ZM25.4694 44V44.25H25.6848L25.7166 44.037L25.4694 44ZM26.6474 36.126V35.876H26.432L26.4001 36.089L26.6474 36.126ZM35.0174 36.126L35.2646 36.089L35.2328 35.876H35.0174V36.126ZM36.1954 44L35.9481 44.037L35.98 44.25H36.1954V44ZM43.0774 44V44.25H43.3706L43.3243 43.9605L43.0774 44ZM30.8014 8.288L31.0486 8.25098H30.5541L30.8014 8.288ZM34.0874 30.236V30.486H34.3776L34.3346 30.199L34.0874 30.236ZM27.5154 30.236L27.2681 30.199L27.2252 30.486H27.5154V30.236ZM36.1334 0.349997H26.1514V0.849997H36.1334V0.349997ZM25.9045 0.560499L18.9605 43.9605L19.4543 44.0395L26.3983 0.639495L25.9045 0.560499ZM19.2074 44.25H25.4694V43.75H19.2074V44.25ZM25.7166 44.037L26.8946 36.163L26.4001 36.089L25.2221 43.963L25.7166 44.037ZM26.6474 36.376H35.0174V35.876H26.6474V36.376ZM34.7701 36.163L35.9481 44.037L36.4426 43.963L35.2646 36.089L34.7701 36.163ZM36.1954 44.25H43.0774V43.75H36.1954V44.25ZM43.3243 43.9605L36.3803 0.560499L35.8865 0.639495L42.8305 44.0395L43.3243 43.9605ZM30.5541 8.32501L33.8401 30.273L34.3346 30.199L31.0486 8.25098L30.5541 8.32501ZM34.0874 29.986H27.5154V30.486H34.0874V29.986ZM27.7626 30.273L31.0486 8.32501L30.5541 8.25098L27.2681 30.199L27.7626 30.273ZM60.7629 43.69L60.9865 43.5782L60.8869 43.3789L60.6775 43.4551L60.7629 43.69ZM67.5829 46.666V46.916H67.8329V46.666H67.5829ZM67.5829 40.59H67.8329V40.34H67.5829V40.59ZM65.0409 39.66L64.8208 39.5415L64.7663 39.6426L64.8076 39.7497L65.0409 39.66ZM45.3849 33.584C45.3849 37.0977 46.3107 39.8952 48.1189 41.8154C49.9293 43.7379 52.5911 44.746 55.9889 44.746V44.246C52.6907 44.246 50.1755 43.2701 48.4829 41.4726C46.7881 39.6728 45.8849 37.0143 45.8849 33.584H45.3849ZM55.9889 44.746C57.8156 44.746 59.4565 44.4311 60.8483 43.9249L60.6775 43.4551C59.3413 43.9409 57.7582 44.246 55.9889 44.246V44.746ZM60.5393 43.8018C61.5234 45.77 63.5496 46.916 66.6529 46.916V46.416C63.6802 46.416 61.8624 45.33 60.9865 43.5782L60.5393 43.8018ZM66.6529 46.916H67.5829V46.416H66.6529V46.916ZM67.8329 46.666V40.59H67.3329V46.666H67.8329ZM67.5829 40.34H66.9629V40.84H67.5829V40.34ZM66.9629 40.34C66.4022 40.34 66.0483 40.3065 65.7995 40.1981C65.575 40.1002 65.4125 39.9298 65.2742 39.5703L64.8076 39.7497C64.9793 40.1962 65.2197 40.4908 65.5997 40.6564C65.9555 40.8115 66.4076 40.84 66.9629 40.84V40.34ZM65.261 39.7785C66.1541 38.1199 66.5929 36.03 66.5929 33.584H66.0929C66.0929 35.974 65.6637 37.9761 64.8208 39.5415L65.261 39.7785ZM66.5929 33.584V11.016H66.0929V33.584H66.5929ZM66.5929 11.016C66.5929 7.50228 65.6671 4.70484 63.8589 2.78461C62.0485 0.862049 59.3867 -0.146 55.9889 -0.146V0.354C59.2871 0.354 61.8023 1.32995 63.4949 3.12739C65.1897 4.92715 66.0929 7.58571 66.0929 11.016H66.5929ZM55.9889 -0.146C52.5911 -0.146 49.9293 0.862049 48.1189 2.78461C46.3107 4.70484 45.3849 7.50228 45.3849 11.016H45.8849C45.8849 7.58571 46.7881 4.92715 48.4829 3.12739C50.1755 1.32995 52.6907 0.354 55.9889 0.354V-0.146ZM45.3849 11.016V33.584H45.8849V11.016H45.3849ZM52.7049 10.582C52.7049 9.06304 53.0398 8.06506 53.5942 7.4475C54.1437 6.83537 54.9482 6.554 55.9889 6.554V6.054C54.8596 6.054 53.8971 6.36163 53.2221 7.11349C52.552 7.85994 52.2049 9.00095 52.2049 10.582H52.7049ZM55.9889 6.554C57.0296 6.554 57.8341 6.83537 58.3836 7.4475C58.938 8.06506 59.2729 9.06304 59.2729 10.582H59.7729C59.7729 9.00095 59.4258 7.85994 58.7557 7.11349C58.0807 6.36163 57.1182 6.054 55.9889 6.054V6.554ZM59.2729 10.582V34.018H59.7729V10.582H59.2729ZM59.2729 34.018C59.2729 35.537 58.938 36.5349 58.3836 37.1525C57.8341 37.7646 57.0296 38.046 55.9889 38.046V38.546C57.1182 38.546 58.0807 38.2384 58.7557 37.4865C59.4258 36.7401 59.7729 35.599 59.7729 34.018H59.2729ZM55.9889 38.046C54.9482 38.046 54.1437 37.7646 53.5942 37.1525C53.0398 36.5349 52.7049 35.537 52.7049 34.018H52.2049C52.2049 35.599 52.552 36.7401 53.2221 37.4865C53.8971 38.2384 54.8596 38.546 55.9889 38.546V38.046ZM52.7049 34.018V10.582H52.2049V34.018H52.7049Z" fill="white"/> </svg>