<?xml version="1.0" encoding="UTF-8"?>
<svg xmlns="http://www.w3.org/2000/svg" width="196" height="45" viewBox="0 0 196 45" fill="none"> <path d="M7.3 6.8V6.55H7.05V6.8H7.3ZM18.522 6.8V7.05H18.772V6.8H18.522ZM18.522 0.599997H18.772V0.349997H18.522V0.599997ZM0.48 0.599997V0.349997H0.23V0.599997H0.48ZM0.48 44H0.23V44.25H0.48V44ZM7.3 44V44.25H7.55V44H7.3ZM7.3 26.082V25.832H7.05V26.082H7.3ZM16.104 26.082V26.332H16.354V26.082H16.104ZM16.104 19.882H16.354V19.632H16.104V19.882ZM7.3 19.882H7.05V20.132H7.3V19.882ZM7.3 7.05H18.522V6.55H7.3V7.05ZM18.772 6.8V0.599997H18.272V6.8H18.772ZM18.522 0.349997H0.48V0.849997H18.522V0.349997ZM0.23 0.599997V44H0.73V0.599997H0.23ZM0.48 44.25H7.3V43.75H0.48V44.25ZM7.55 44V26.082H7.05V44H7.55ZM7.3 26.332H16.104V25.832H7.3V26.332ZM16.354 26.082V19.882H15.854V26.082H16.354ZM16.104 19.632H7.3V20.132H16.104V19.632ZM7.55 19.882V6.8H7.05V19.882H7.55ZM28.3045 10.582C28.3045 9.06304 28.6394 8.06506 29.1938 7.4475C29.7433 6.83537 30.5478 6.554 31.5885 6.554V6.054C30.4592 6.054 29.4967 6.36163 28.8217 7.11349C28.1516 7.85994 27.8045 9.00095 27.8045 10.582H28.3045ZM31.5885 6.554C32.6292 6.554 33.4337 6.83537 33.9832 7.4475C34.5376 8.06506 34.8725 9.06304 34.8725 10.582H35.3725C35.3725 9.00095 35.0254 7.85994 34.3553 7.11349C33.6803 6.36163 32.7178 6.054 31.5885 6.054V6.554ZM34.8725 10.582V34.018H35.3725V10.582H34.8725ZM34.8725 34.018C34.8725 35.537 34.5376 36.5349 33.9832 37.1525C33.4337 37.7646 32.6292 38.046 31.5885 38.046V38.546C32.7178 38.546 33.6803 38.2384 34.3553 37.4865C35.0254 36.7401 35.3725 35.599 35.3725 34.018H34.8725ZM31.5885 38.046C30.5478 38.046 29.7433 37.7646 29.1938 37.1525C28.6394 36.5349 28.3045 35.537 28.3045 34.018H27.8045C27.8045 35.599 28.1516 36.7401 28.8217 37.4865C29.4967 38.2384 30.4592 38.546 31.5885 38.546V38.046ZM28.3045 34.018V10.582H27.8045V34.018H28.3045ZM20.9845 33.584C20.9845 37.0977 21.9103 39.8952 23.7185 41.8154C25.5289 43.7379 28.1907 44.746 31.5885 44.746V44.246C28.2903 44.246 25.7751 43.2701 24.0825 41.4726C22.3877 39.6728 21.4845 37.0143 21.4845 33.584H20.9845ZM31.5885 44.746C34.9863 44.746 37.6481 43.7379 39.4585 41.8154C41.2667 39.8952 42.1925 37.0977 42.1925 33.584H41.6925C41.6925 37.0143 40.7893 39.6728 39.0945 41.4726C37.4019 43.2701 34.8867 44.246 31.5885 44.246V44.746ZM42.1925 33.584V11.016H41.6925V33.584H42.1925ZM42.1925 11.016C42.1925 7.50228 41.2667 4.70484 39.4585 2.78461C37.6481 0.862049 34.9863 -0.146 31.5885 -0.146V0.354C34.8867 0.354 37.4019 1.32995 39.0945 3.12739C40.7893 4.92715 41.6925 7.58571 41.6925 11.016H42.1925ZM31.5885 -0.146C28.1907 -0.146 25.5289 0.862049 23.7185 2.78461C21.9103 4.70484 20.9845 7.50228 20.9845 11.016H21.4845C21.4845 7.58571 22.3877 4.92715 24.0825 3.12739C25.7751 1.32995 28.2903 0.354 31.5885 0.354V-0.146ZM20.9845 11.016V33.584H21.4845V11.016H20.9845ZM67.5785 44V44.25H67.9558L67.8088 43.9026L67.5785 44ZM62.3085 22.796L62.2023 22.5697L61.6921 22.8092L62.2121 23.0266L62.3085 22.796ZM46.3745 0.599997V0.349997H46.1245V0.599997H46.3745ZM46.3745 44H46.1245V44.25H46.3745V44ZM53.1945 44V44.25H53.4445V44H53.1945ZM53.1945 26.33V26.08H52.9445V26.33H53.1945ZM60.6345 44L60.3974 44.0791L60.4543 44.25H60.6345V44ZM53.1945 20.13H52.9445V20.38H53.1945V20.13ZM53.1945 6.8V6.55H52.9445V6.8H53.1945ZM67.8088 43.9026C67.1485 42.342 67.0845 40.8383 67.0845 38.73H66.5845C66.5845 40.8377 66.6446 42.434 67.3483 44.0974L67.8088 43.9026ZM67.0845 38.73V32.034H66.5845V38.73H67.0845ZM67.0845 32.034C67.0845 27.4807 65.9609 24.0524 62.405 22.5654L62.2121 23.0266C65.4762 24.3916 66.5845 27.5353 66.5845 32.034H67.0845ZM62.4148 23.0223C65.5734 21.5397 67.0225 18.5103 67.0225 13.992H66.5225C66.5225 18.4017 65.1196 21.2003 62.2023 22.5697L62.4148 23.0223ZM67.0225 13.992V10.582H66.5225V13.992H67.0225ZM67.0225 10.582C67.0225 7.20144 66.2561 4.62866 64.5476 2.90405C62.8387 1.17903 60.2344 0.349997 56.6665 0.349997V0.849997C60.1667 0.849997 62.6153 1.66396 64.1924 3.25594C65.7699 4.84833 66.5225 7.26655 66.5225 10.582H67.0225ZM56.6665 0.349997H46.3745V0.849997H56.6665V0.349997ZM46.1245 0.599997V44H46.6245V0.599997H46.1245ZM46.3745 44.25H53.1945V43.75H46.3745V44.25ZM53.4445 44V26.33H52.9445V44H53.4445ZM53.1945 26.58H55.5505V26.08H53.1945V26.58ZM55.5505 26.58C57.0642 26.58 58.0917 26.9428 58.7528 27.7376C59.4241 28.5446 59.7645 29.8501 59.7645 31.848H60.2645C60.2645 29.8159 59.9229 28.3624 59.1372 27.4179C58.3414 26.4612 57.1369 26.08 55.5505 26.08V26.58ZM59.7645 31.848V38.668H60.2645V31.848H59.7645ZM59.7645 38.668C59.7645 40.4387 59.8265 41.5068 59.9376 42.2765C60.0496 43.0522 60.211 43.52 60.3974 44.0791L60.8717 43.9209C60.686 43.364 60.5375 42.9328 60.4325 42.205C60.3265 41.4712 60.2645 40.4313 60.2645 38.668H59.7645ZM60.6345 44.25H67.5785V43.75H60.6345V44.25ZM56.4805 7.05C57.6415 7.05 58.4228 7.37516 58.9258 8.02284C59.4403 8.68525 59.7025 9.7326 59.7025 11.264H60.2025C60.2025 9.6954 59.9378 8.51075 59.3207 7.71616C58.6922 6.90684 57.7376 6.55 56.4805 6.55V7.05ZM59.7025 11.264V15.542H60.2025V11.264H59.7025ZM59.7025 15.542C59.7025 17.247 59.3212 18.316 58.682 18.9622C58.044 19.6072 57.1004 19.88 55.8605 19.88V20.38C57.1626 20.38 58.2651 20.0947 59.0375 19.3138C59.8088 18.534 60.2025 17.309 60.2025 15.542H59.7025ZM55.8605 19.88H53.1945V20.38H55.8605V19.88ZM53.4445 20.13V6.8H52.9445V20.13H53.4445ZM53.1945 7.05H56.4805V6.55H53.1945V7.05ZM98.5548 44L98.3062 44.0267L98.3302 44.25H98.5548V44ZM107.607 44V44.25H107.83L107.855 44.0277L107.607 44ZM112.443 0.599997L112.691 0.627683L112.722 0.349997H112.443V0.599997ZM106.491 0.599997V0.349997H106.265L106.242 0.574501L106.491 0.599997ZM102.957 35.072L102.708 35.0966L103.205 35.0975L102.957 35.072ZM99.5468 0.599997L99.7956 0.575387L99.7733 0.349997H99.5468V0.599997ZM92.9748 0.599997V0.349997H92.7477L92.7259 0.576103L92.9748 0.599997ZM89.6888 34.824L89.4402 34.8506L89.9377 34.8479L89.6888 34.824ZM86.0308 0.599997L86.2794 0.573427L86.2555 0.349997H86.0308V0.599997ZM79.3968 0.599997V0.349997H79.1174L79.1483 0.627683L79.3968 0.599997ZM84.2328 44L83.9843 44.0277L84.0091 44.25H84.2328V44ZM93.5948 44V44.25H93.8194L93.8434 44.0267L93.5948 44ZM96.0748 20.874L96.3234 20.8473H95.8262L96.0748 20.874ZM98.5548 44.25H107.607V43.75H98.5548V44.25ZM107.855 44.0277L112.691 0.627683L112.194 0.572311L107.358 43.9723L107.855 44.0277ZM112.443 0.349997H106.491V0.849997H112.443V0.349997ZM106.242 0.574501L102.708 35.0465L103.205 35.0975L106.739 0.625493L106.242 0.574501ZM103.206 35.0474L99.7956 0.575387L99.298 0.624607L102.708 35.0966L103.206 35.0474ZM99.5468 0.349997H92.9748V0.849997H99.5468V0.349997ZM92.7259 0.576103L89.4399 34.8001L89.9377 34.8479L93.2237 0.623891L92.7259 0.576103ZM89.9374 34.7974L86.2794 0.573427L85.7822 0.626567L89.4402 34.8506L89.9374 34.7974ZM86.0308 0.349997H79.3968V0.849997H86.0308V0.349997ZM79.1483 0.627683L83.9843 44.0277L84.4813 43.9723L79.6453 0.572311L79.1483 0.627683ZM84.2328 44.25H93.5948V43.75H84.2328V44.25ZM93.8434 44.0267L96.3234 20.9007L95.8262 20.8473L93.3462 43.9733L93.8434 44.0267ZM95.8262 20.9007L98.3062 44.0267L98.8034 43.9733L96.3234 20.8473L95.8262 20.9007ZM122.702 25.4V25.15H122.452V25.4H122.702ZM130.452 25.4H130.702V25.15H130.452V25.4ZM130.452 44H130.202V44.25H130.452V44ZM137.396 44V44.25H137.646V44H137.396ZM137.396 0.599997H137.646V0.349997H137.396V0.599997ZM130.452 0.599997V0.349997H130.202V0.599997H130.452ZM130.452 19.2V19.45H130.702V19.2H130.452ZM122.702 19.2H122.452V19.45H122.702V19.2ZM122.702 0.599997H122.952V0.349997H122.702V0.599997ZM115.882 0.599997V0.349997H115.632V0.599997H115.882ZM115.882 44H115.632V44.25H115.882V44ZM122.702 44V44.25H122.952V44H122.702ZM122.702 25.65H130.452V25.15H122.702V25.65ZM130.202 25.4V44H130.702V25.4H130.202ZM130.452 44.25H137.396V43.75H130.452V44.25ZM137.646 44V0.599997H137.146V44H137.646ZM137.396 0.349997H130.452V0.849997H137.396V0.349997ZM130.202 0.599997V19.2H130.702V0.599997H130.202ZM130.452 18.95H122.702V19.45H130.452V18.95ZM122.952 19.2V0.599997H122.452V19.2H122.952ZM122.702 0.349997H115.882V0.849997H122.702V0.349997ZM115.632 0.599997V44H116.132V0.599997H115.632ZM115.882 44.25H122.702V43.75H115.882V44.25ZM122.952 44V25.4H122.452V44H122.952ZM148.853 10.582C148.853 9.06304 149.188 8.06506 149.743 7.4475C150.292 6.83537 151.097 6.554 152.137 6.554V6.054C151.008 6.054 150.046 6.36163 149.371 7.11349C148.7 7.85994 148.353 9.00095 148.353 10.582H148.853ZM152.137 6.554C153.178 6.554 153.983 6.83537 154.532 7.4475C155.086 8.06506 155.421 9.06304 155.421 10.582H155.921C155.921 9.00095 155.574 7.85994 154.904 7.11349C154.229 6.36163 153.267 6.054 152.137 6.054V6.554ZM155.421 10.582V34.018H155.921V10.582H155.421ZM155.421 34.018C155.421 35.537 155.086 36.5349 154.532 37.1525C153.983 37.7646 153.178 38.046 152.137 38.046V38.546C153.267 38.546 154.229 38.2384 154.904 37.4865C155.574 36.7401 155.921 35.599 155.921 34.018H155.421ZM152.137 38.046C151.097 38.046 150.292 37.7646 149.743 37.1525C149.188 36.5349 148.853 35.537 148.853 34.018H148.353C148.353 35.599 148.7 36.7401 149.371 37.4865C150.046 38.2384 151.008 38.546 152.137 38.546V38.046ZM148.853 34.018V10.582H148.353V34.018H148.853ZM141.533 33.584C141.533 37.0977 142.459 39.8952 144.267 41.8154C146.078 43.7379 148.74 44.746 152.137 44.746V44.246C148.839 44.246 146.324 43.2701 144.631 41.4726C142.937 39.6728 142.033 37.0143 142.033 33.584H141.533ZM152.137 44.746C155.535 44.746 158.197 43.7379 160.007 41.8154C161.816 39.8952 162.741 37.0977 162.741 33.584H162.241C162.241 37.0143 161.338 39.6728 159.643 41.4726C157.951 43.2701 155.436 44.246 152.137 44.246V44.746ZM162.741 33.584V11.016H162.241V33.584H162.741ZM162.741 11.016C162.741 7.50228 161.816 4.70484 160.007 2.78461C158.197 0.862049 155.535 -0.146 152.137 -0.146V0.354C155.436 0.354 157.951 1.32995 159.643 3.12739C161.338 4.92715 162.241 7.58571 162.241 11.016H162.741ZM152.137 -0.146C148.74 -0.146 146.078 0.862049 144.267 2.78461C142.459 4.70484 141.533 7.50228 141.533 11.016H142.033C142.033 7.58571 142.937 4.92715 144.631 3.12739C146.324 1.32995 148.839 0.354 152.137 0.354V-0.146ZM141.533 11.016V33.584H142.033V11.016H141.533ZM176.347 0.599997L176.594 0.559783L176.56 0.349997H176.347V0.599997ZM166.861 0.599997V0.349997H166.611V0.599997H166.861ZM166.861 44H166.611V44.25H166.861V44ZM172.813 44V44.25H173.063V44H172.813ZM172.813 13.31L173.06 13.2691L172.563 13.31H172.813ZM177.897 44L177.651 44.0409L177.685 44.25H177.897V44ZM184.345 44V44.25H184.56L184.593 44.0374L184.345 44ZM189.057 12.876H189.307L188.81 12.8386L189.057 12.876ZM189.057 44H188.807V44.25H189.057V44ZM195.505 44V44.25H195.755V44H195.505ZM195.505 0.599997H195.755V0.349997H195.505V0.599997ZM186.019 0.599997V0.349997H185.804L185.772 0.562693L186.019 0.599997ZM181.369 31.414L181.123 31.4542L181.617 31.4513L181.369 31.414ZM176.347 0.349997H166.861V0.849997H176.347V0.349997ZM166.611 0.599997V44H167.111V0.599997H166.611ZM166.861 44.25H172.813V43.75H166.861V44.25ZM173.063 44V13.31H172.563V44H173.063ZM172.567 13.3509L177.651 44.0409L178.144 43.9591L173.06 13.2691L172.567 13.3509ZM177.897 44.25H184.345V43.75H177.897V44.25ZM184.593 44.0374L189.305 12.9134L188.81 12.8386L184.098 43.9626L184.593 44.0374ZM188.807 12.876V44H189.307V12.876H188.807ZM189.057 44.25H195.505V43.75H189.057V44.25ZM195.755 44V0.599997H195.255V44H195.755ZM195.505 0.349997H186.019V0.849997H195.505V0.349997ZM185.772 0.562693L181.122 31.3767L181.617 31.4513L186.267 0.637301L185.772 0.562693ZM181.616 31.3738L176.594 0.559783L176.101 0.640211L181.123 31.4542L181.616 31.3738Z" fill="white"/> </svg>