<?xml version="1.0" encoding="UTF-8"?>
<svg xmlns="http://www.w3.org/2000/svg" width="255" height="82" viewBox="0 0 255 82" fill="none"> <path d="M0.8 0.711993H37.088V15.496H30.144V32.408H51.424V15.496H44.816V0.711993H81.216V15.496H74.72V64.216H81.216V79H44.816V64.216H51.424V47.304H30.144V64.216H37.088V79H0.8V64.216H6.96V15.496H0.8V0.711993ZM142.993 71.272C138.961 74.7813 134.63 77.2827 130.001 78.776C125.371 80.2693 120.07 81.016 114.097 81.016C109.169 81.016 104.427 79.9333 99.8728 77.768C95.3928 75.6027 91.6968 72.2427 88.7848 67.688C85.9474 63.1333 84.5288 57.4587 84.5288 50.664C84.5288 44.6907 85.8354 39.5013 88.4488 35.096C91.1368 30.6907 94.7581 27.3307 99.3128 25.016C103.867 22.6267 108.982 21.432 114.657 21.432C121.227 21.432 126.902 22.9627 131.681 26.024C136.534 29.0107 139.782 32.8933 141.425 37.672C142.47 40.808 142.993 44.28 142.993 48.088C142.993 51.448 142.545 54.2853 141.649 56.6H106.369C106.891 59.1387 107.899 61.304 109.393 63.096C110.961 64.888 113.798 65.784 117.905 65.784C120.593 65.784 123.206 65.448 125.745 64.776C128.283 64.104 130.897 62.648 133.585 60.408L142.993 71.272ZM115.329 36.552C112.342 36.552 110.177 37.5227 108.833 39.464C107.563 41.4053 106.854 43.4213 106.705 45.512H123.617C123.542 42.824 122.945 40.6587 121.825 39.016C120.705 37.3733 118.539 36.552 115.329 36.552ZM179.168 79H147.472V64.328H152.4V37.56H147.584V23H168.64L172 30.168C173.12 28.0773 174.277 26.3973 175.472 25.128C176.667 23.8587 178.347 22.8507 180.512 22.104C182.752 21.3573 185.701 20.984 189.36 20.984V40.36C183.984 40.36 179.989 41.256 177.376 43.048C174.837 44.84 173.568 48.088 173.568 52.792V64.328H179.168V79ZM223.527 80.456C218.076 80.456 212.962 79.336 208.183 77.096C203.404 74.856 199.559 71.5333 196.647 67.128C193.735 62.7227 192.279 57.4213 192.279 51.224C192.279 45.1013 193.698 39.8373 196.535 35.432C199.447 30.952 203.255 27.5547 207.959 25.24C212.663 22.8507 217.666 21.656 222.967 21.656C228.94 21.7307 234.279 22.9627 238.983 25.352C243.687 27.7413 247.383 31.176 250.071 35.656C252.759 40.136 254.103 45.4747 254.103 51.672C254.103 57.6453 252.759 62.7973 250.071 67.128C247.383 71.4587 243.687 74.7813 238.983 77.096C234.354 79.336 229.202 80.456 223.527 80.456ZM223.527 66.12C225.842 66.12 227.671 64.7387 229.015 61.976C230.434 59.1387 231.143 55.5547 231.143 51.224C231.143 46.8933 230.396 43.3467 228.903 40.584C227.484 37.7467 225.506 36.2907 222.967 36.216C220.802 36.216 218.972 37.6347 217.479 40.472C215.986 43.3093 215.239 46.7813 215.239 50.888C215.239 55.4427 216.023 59.1387 217.591 61.976C219.159 64.7387 221.138 66.12 223.527 66.12Z" fill="url(#paint0_linear_104_34)"/> <defs> <linearGradient id="paint0_linear_104_34" x1="10" y1="40" x2="256" y2="84.5" gradientUnits="userSpaceOnUse"> <stop stop-color="white"/> <stop offset="1" stop-color="white" stop-opacity="0"/> </linearGradient> </defs> </svg>