<?xml version="1.0" encoding="UTF-8"?>
<svg xmlns="http://www.w3.org/2000/svg" width="225" height="45" viewBox="0 0 225 45" fill="none"> <path d="M9.904 0.599997L10.1507 0.559783L10.1166 0.349997H9.904V0.599997ZM0.418 0.599997V0.349997H0.168V0.599997H0.418ZM0.418 44H0.168V44.25H0.418V44ZM6.37 44V44.25H6.62V44H6.37ZM6.37 13.31L6.61664 13.2691L6.12 13.31H6.37ZM11.454 44L11.2074 44.0409L11.242 44.25H11.454V44ZM17.902 44V44.25H18.117L18.1492 44.0374L17.902 44ZM22.614 12.876H22.864L22.3668 12.8386L22.614 12.876ZM22.614 44H22.364V44.25H22.614V44ZM29.062 44V44.25H29.312V44H29.062ZM29.062 0.599997H29.312V0.349997H29.062V0.599997ZM19.576 0.599997V0.349997H19.3609L19.3288 0.562693L19.576 0.599997ZM14.926 31.414L14.6793 31.4542L15.1732 31.4513L14.926 31.414ZM9.904 0.349997H0.418V0.849997H9.904V0.349997ZM0.168 0.599997V44H0.668V0.599997H0.168ZM0.418 44.25H6.37V43.75H0.418V44.25ZM6.62 44V13.31H6.12V44H6.62ZM6.12336 13.3509L11.2074 44.0409L11.7006 43.9591L6.61664 13.2691L6.12336 13.3509ZM11.454 44.25H17.902V43.75H11.454V44.25ZM18.1492 44.0374L22.8612 12.9134L22.3668 12.8386L17.6548 43.9626L18.1492 44.0374ZM22.364 12.876V44H22.864V12.876H22.364ZM22.614 44.25H29.062V43.75H22.614V44.25ZM29.312 44V0.599997H28.812V44H29.312ZM29.062 0.349997H19.576V0.849997H29.062V0.349997ZM19.3288 0.562693L14.6788 31.3767L15.1732 31.4513L19.8232 0.637301L19.3288 0.562693ZM15.1727 31.3738L10.1507 0.559783L9.65726 0.640211L14.6793 31.4542L15.1727 31.3738ZM40.535 10.582C40.535 9.06304 40.8699 8.06506 41.4243 7.4475C41.9738 6.83537 42.7783 6.554 43.819 6.554V6.054C42.6897 6.054 41.7272 6.36163 41.0522 7.11349C40.3821 7.85994 40.035 9.00095 40.035 10.582H40.535ZM43.819 6.554C44.8597 6.554 45.6642 6.83537 46.2137 7.4475C46.7681 8.06506 47.103 9.06304 47.103 10.582H47.603C47.603 9.00095 47.2559 7.85994 46.5858 7.11349C45.9108 6.36163 44.9483 6.054 43.819 6.054V6.554ZM47.103 10.582V34.018H47.603V10.582H47.103ZM47.103 34.018C47.103 35.537 46.7681 36.5349 46.2137 37.1525C45.6642 37.7646 44.8597 38.046 43.819 38.046V38.546C44.9483 38.546 45.9108 38.2384 46.5858 37.4865C47.2559 36.7401 47.603 35.599 47.603 34.018H47.103ZM43.819 38.046C42.7783 38.046 41.9738 37.7646 41.4243 37.1525C40.8699 36.5349 40.535 35.537 40.535 34.018H40.035C40.035 35.599 40.3821 36.7401 41.0522 37.4865C41.7272 38.2384 42.6897 38.546 43.819 38.546V38.046ZM40.535 34.018V10.582H40.035V34.018H40.535ZM33.215 33.584C33.215 37.0977 34.1407 39.8952 35.949 41.8154C37.7594 43.7379 40.4212 44.746 43.819 44.746V44.246C40.5208 44.246 38.0056 43.2701 36.313 41.4726C34.6182 39.6728 33.715 37.0143 33.715 33.584H33.215ZM43.819 44.746C47.2168 44.746 49.8786 43.7379 51.689 41.8154C53.4972 39.8952 54.423 37.0977 54.423 33.584H53.923C53.923 37.0143 53.0197 39.6728 51.325 41.4726C49.6324 43.2701 47.1172 44.246 43.819 44.246V44.746ZM54.423 33.584V11.016H53.923V33.584H54.423ZM54.423 11.016C54.423 7.50228 53.4972 4.70484 51.689 2.78461C49.8786 0.862049 47.2168 -0.146 43.819 -0.146V0.354C47.1172 0.354 49.6324 1.32995 51.325 3.12739C53.0197 4.92715 53.923 7.58571 53.923 11.016H54.423ZM43.819 -0.146C40.4212 -0.146 37.7594 0.862049 35.949 2.78461C34.1407 4.70484 33.215 7.50228 33.215 11.016H33.715C33.715 7.58571 34.6182 4.92715 36.313 3.12739C38.0056 1.32995 40.5208 0.354 43.819 0.354V-0.146ZM33.215 11.016V33.584H33.715V11.016H33.215ZM73.175 44L72.9337 44.0652L72.9836 44.25H73.175V44ZM80.181 44V44.25H80.431V44H80.181ZM80.181 0.599997H80.431V0.349997H80.181V0.599997ZM74.105 0.599997V0.349997H73.855V0.599997H74.105ZM74.105 26.578L73.8636 26.6431L74.355 26.578H74.105ZM67.099 0.599997L67.3404 0.5349L67.2905 0.349997H67.099V0.599997ZM58.543 0.599997V0.349997H58.293V0.599997H58.543ZM58.543 44H58.293V44.25H58.543V44ZM64.681 44V44.25H64.931V44H64.681ZM64.681 12.566L64.9223 12.5008L64.431 12.566H64.681ZM73.175 44.25H80.181V43.75H73.175V44.25ZM80.431 44V0.599997H79.931V44H80.431ZM80.181 0.349997H74.105V0.849997H80.181V0.349997ZM73.855 0.599997V26.578H74.355V0.599997H73.855ZM74.3464 26.5129L67.3404 0.5349L66.8576 0.665094L73.8636 26.6431L74.3464 26.5129ZM67.099 0.349997H58.543V0.849997H67.099V0.349997ZM58.293 0.599997V44H58.793V0.599997H58.293ZM58.543 44.25H64.681V43.75H58.543V44.25ZM64.931 44V12.566H64.431V44H64.931ZM64.4397 12.6312L72.9337 44.0652L73.4163 43.9348L64.9223 12.5008L64.4397 12.6312ZM91.884 6.8V6.55H91.634V6.8H91.884ZM103.664 6.8V7.05H103.914V6.8H103.664ZM103.664 0.599997H103.914V0.349997H103.664V0.599997ZM85.064 0.599997V0.349997H84.814V0.599997H85.064ZM85.064 44H84.814V44.25H85.064V44ZM103.664 44V44.25H103.914V44H103.664ZM103.664 37.8H103.914V37.55H103.664V37.8ZM91.884 37.8H91.634V38.05H91.884V37.8ZM91.884 25.09V24.84H91.634V25.09H91.884ZM101.246 25.09V25.34H101.496V25.09H101.246ZM101.246 18.89H101.496V18.64H101.246V18.89ZM91.884 18.89H91.634V19.14H91.884V18.89ZM91.884 7.05H103.664V6.55H91.884V7.05ZM103.914 6.8V0.599997H103.414V6.8H103.914ZM103.664 0.349997H85.064V0.849997H103.664V0.349997ZM84.814 0.599997V44H85.314V0.599997H84.814ZM85.064 44.25H103.664V43.75H85.064V44.25ZM103.914 44V37.8H103.414V44H103.914ZM103.664 37.55H91.884V38.05H103.664V37.55ZM92.134 37.8V25.09H91.634V37.8H92.134ZM91.884 25.34H101.246V24.84H91.884V25.34ZM101.496 25.09V18.89H100.996V25.09H101.496ZM101.246 18.64H91.884V19.14H101.246V18.64ZM92.134 18.89V6.8H91.634V18.89H92.134ZM114.276 44H114.026V44.25H114.276V44ZM121.096 44V44.25H121.346V44H121.096ZM121.096 29.616L120.857 29.5448L120.846 29.5797V29.616H121.096ZM129.714 0.599997L129.954 0.671176L130.049 0.349997H129.714V0.599997ZM123.204 0.599997V0.349997H123.011L122.962 0.536336L123.204 0.599997ZM117.996 20.378L117.754 20.4417L117.996 21.3598L118.238 20.4417L117.996 20.378ZM112.788 0.599997L113.03 0.536336L112.981 0.349997H112.788V0.599997ZM105.658 0.599997V0.349997H105.323L105.419 0.671176L105.658 0.599997ZM114.276 29.616H114.526V29.5797L114.516 29.5448L114.276 29.616ZM114.276 44.25H121.096V43.75H114.276V44.25ZM121.346 44V29.616H120.846V44H121.346ZM121.336 29.6872L129.954 0.671176L129.475 0.528818L120.857 29.5448L121.336 29.6872ZM129.714 0.349997H123.204V0.849997H129.714V0.349997ZM122.962 0.536336L117.754 20.3143L118.238 20.4417L123.446 0.663658L122.962 0.536336ZM118.238 20.3143L113.03 0.536336L112.546 0.663658L117.754 20.4417L118.238 20.3143ZM112.788 0.349997H105.658V0.849997H112.788V0.349997ZM105.419 0.671176L114.037 29.6872L114.516 29.5448L105.898 0.528818L105.419 0.671176ZM114.026 29.616V44H114.526V29.616H114.026ZM156.669 44L156.428 44.0652L156.478 44.25H156.669V44ZM163.675 44V44.25H163.925V44H163.675ZM163.675 0.599997H163.925V0.349997H163.675V0.599997ZM157.599 0.599997V0.349997H157.349V0.599997H157.599ZM157.599 26.578L157.358 26.6431L157.849 26.578H157.599ZM150.593 0.599997L150.835 0.5349L150.785 0.349997H150.593V0.599997ZM142.037 0.599997V0.349997H141.787V0.599997H142.037ZM142.037 44H141.787V44.25H142.037V44ZM148.175 44V44.25H148.425V44H148.175ZM148.175 12.566L148.416 12.5008L147.925 12.566H148.175ZM156.669 44.25H163.675V43.75H156.669V44.25ZM163.925 44V0.599997H163.425V44H163.925ZM163.675 0.349997H157.599V0.849997H163.675V0.349997ZM157.349 0.599997V26.578H157.849V0.599997H157.349ZM157.841 26.5129L150.835 0.5349L150.352 0.665094L157.358 26.6431L157.841 26.5129ZM150.593 0.349997H142.037V0.849997H150.593V0.349997ZM141.787 0.599997V44H142.287V0.599997H141.787ZM142.037 44.25H148.175V43.75H142.037V44.25ZM148.425 44V12.566H147.925V44H148.425ZM147.934 12.6312L156.428 44.0652L156.91 43.9348L148.416 12.5008L147.934 12.6312ZM175.07 10.582C175.07 9.06304 175.405 8.06506 175.959 7.4475C176.509 6.83537 177.313 6.554 178.354 6.554V6.054C177.225 6.054 176.262 6.36163 175.587 7.11349C174.917 7.85994 174.57 9.00095 174.57 10.582H175.07ZM178.354 6.554C179.395 6.554 180.199 6.83537 180.749 7.4475C181.303 8.06506 181.638 9.06304 181.638 10.582H182.138C182.138 9.00095 181.791 7.85994 181.121 7.11349C180.446 6.36163 179.483 6.054 178.354 6.054V6.554ZM181.638 10.582V34.018H182.138V10.582H181.638ZM181.638 34.018C181.638 35.537 181.303 36.5349 180.749 37.1525C180.199 37.7646 179.395 38.046 178.354 38.046V38.546C179.483 38.546 180.446 38.2384 181.121 37.4865C181.791 36.7401 182.138 35.599 182.138 34.018H181.638ZM178.354 38.046C177.313 38.046 176.509 37.7646 175.959 37.1525C175.405 36.5349 175.07 35.537 175.07 34.018H174.57C174.57 35.599 174.917 36.7401 175.587 37.4865C176.262 38.2384 177.225 38.546 178.354 38.546V38.046ZM175.07 34.018V10.582H174.57V34.018H175.07ZM167.75 33.584C167.75 37.0977 168.676 39.8952 170.484 41.8154C172.295 43.7379 174.956 44.746 178.354 44.746V44.246C175.056 44.246 172.541 43.2701 170.848 41.4726C169.153 39.6728 168.25 37.0143 168.25 33.584H167.75ZM178.354 44.746C181.752 44.746 184.414 43.7379 186.224 41.8154C188.032 39.8952 188.958 37.0977 188.958 33.584H188.458C188.458 37.0143 187.555 39.6728 185.86 41.4726C184.168 43.2701 181.652 44.246 178.354 44.246V44.746ZM188.958 33.584V11.016H188.458V33.584H188.958ZM188.958 11.016C188.958 7.50228 188.032 4.70484 186.224 2.78461C184.414 0.862049 181.752 -0.146 178.354 -0.146V0.354C181.652 0.354 184.168 1.32995 185.86 3.12739C187.555 4.92715 188.458 7.58571 188.458 11.016H188.958ZM178.354 -0.146C174.956 -0.146 172.295 0.862049 170.484 2.78461C168.676 4.70484 167.75 7.50228 167.75 11.016H168.25C168.25 7.58571 169.153 4.92715 170.848 3.12739C172.541 1.32995 175.056 0.354 178.354 0.354V-0.146ZM167.75 11.016V33.584H168.25V11.016H167.75ZM210.748 44L210.5 44.0267L210.524 44.25H210.748V44ZM219.8 44V44.25H220.024L220.049 44.0277L219.8 44ZM224.636 0.599997L224.885 0.627683L224.916 0.349997H224.636V0.599997ZM218.684 0.599997V0.349997H218.458L218.435 0.574501L218.684 0.599997ZM215.15 35.072L214.901 35.0966L215.399 35.0975L215.15 35.072ZM211.74 0.599997L211.989 0.575387L211.967 0.349997H211.74V0.599997ZM205.168 0.599997V0.349997H204.941L204.919 0.576103L205.168 0.599997ZM201.882 34.824L201.634 34.8506L202.131 34.8479L201.882 34.824ZM198.224 0.599997L198.473 0.573427L198.449 0.349997H198.224V0.599997ZM191.59 0.599997V0.349997H191.311L191.342 0.627683L191.59 0.599997ZM196.426 44L196.178 44.0277L196.202 44.25H196.426V44ZM205.788 44V44.25H206.013L206.037 44.0267L205.788 44ZM208.268 20.874L208.517 20.8473H208.02L208.268 20.874ZM210.748 44.25H219.8V43.75H210.748V44.25ZM220.049 44.0277L224.885 0.627683L224.388 0.572311L219.552 43.9723L220.049 44.0277ZM224.636 0.349997H218.684V0.849997H224.636V0.349997ZM218.435 0.574501L214.901 35.0465L215.399 35.0975L218.933 0.625493L218.435 0.574501ZM215.399 35.0474L211.989 0.575387L211.491 0.624607L214.901 35.0966L215.399 35.0474ZM211.74 0.349997H205.168V0.849997H211.74V0.349997ZM204.919 0.576103L201.633 34.8001L202.131 34.8479L205.417 0.623891L204.919 0.576103ZM202.131 34.7974L198.473 0.573427L197.976 0.626567L201.634 34.8506L202.131 34.7974ZM198.224 0.349997H191.59V0.849997H198.224V0.349997ZM191.342 0.627683L196.178 44.0277L196.675 43.9723L191.839 0.572311L191.342 0.627683ZM196.426 44.25H205.788V43.75H196.426V44.25ZM206.037 44.0267L208.517 20.9007L208.02 20.8473L205.54 43.9733L206.037 44.0267ZM208.02 20.9007L210.5 44.0267L210.997 43.9733L208.517 20.8473L208.02 20.9007Z" fill="white"/> </svg>