<?xml version="1.0" encoding="UTF-8"?>
<svg xmlns="http://www.w3.org/2000/svg" width="349" height="45" viewBox="0 0 349 45" fill="none"> <path d="M7.992 10.582C7.992 9.06304 8.32689 8.06506 8.88128 7.4475C9.43082 6.83537 10.2353 6.554 11.276 6.554V6.054C10.1467 6.054 9.18418 6.36163 8.50922 7.11349C7.83911 7.85994 7.492 9.00095 7.492 10.582H7.992ZM11.276 6.554C12.3167 6.554 13.1212 6.83537 13.6707 7.4475C14.2251 8.06506 14.56 9.06304 14.56 10.582H15.06C15.06 9.00095 14.7129 7.85994 14.0428 7.11349C13.3678 6.36163 12.4053 6.054 11.276 6.054V6.554ZM14.56 10.582V34.018H15.06V10.582H14.56ZM14.56 34.018C14.56 35.537 14.2251 36.5349 13.6707 37.1525C13.1212 37.7646 12.3167 38.046 11.276 38.046V38.546C12.4053 38.546 13.3678 38.2384 14.0428 37.4865C14.7129 36.7401 15.06 35.599 15.06 34.018H14.56ZM11.276 38.046C10.2353 38.046 9.43082 37.7646 8.88128 37.1525C8.32689 36.5349 7.992 35.537 7.992 34.018H7.492C7.492 35.599 7.83911 36.7401 8.50922 37.4865C9.18418 38.2384 10.1467 38.546 11.276 38.546V38.046ZM7.992 34.018V10.582H7.492V34.018H7.992ZM0.672 33.584C0.672 37.0977 1.59777 39.8952 3.40599 41.8154C5.21641 43.7379 7.8782 44.746 11.276 44.746V44.246C7.9778 44.246 5.46259 43.2701 3.77001 41.4726C2.07523 39.6728 1.172 37.0143 1.172 33.584H0.672ZM11.276 44.746C14.6738 44.746 17.3356 43.7379 19.146 41.8154C20.9542 39.8952 21.88 37.0977 21.88 33.584H21.38C21.38 37.0143 20.4768 39.6728 18.782 41.4726C17.0894 43.2701 14.5742 44.246 11.276 44.246V44.746ZM21.88 33.584V11.016H21.38V33.584H21.88ZM21.88 11.016C21.88 7.50228 20.9542 4.70484 19.146 2.78461C17.3356 0.862049 14.6738 -0.146 11.276 -0.146V0.354C14.5742 0.354 17.0894 1.32995 18.782 3.12739C20.4768 4.92715 21.38 7.58571 21.38 11.016H21.88ZM11.276 -0.146C7.8782 -0.146 5.21641 0.862049 3.40599 2.78461C1.59777 4.70484 0.672 7.50228 0.672 11.016H1.172C1.172 7.58571 2.07523 4.92715 3.77001 3.12739C5.46259 1.32995 7.9778 0.354 11.276 0.354V-0.146ZM0.672 11.016V33.584H1.172V11.016H0.672ZM40.632 44L40.3907 44.0652L40.4406 44.25H40.632V44ZM47.638 44V44.25H47.888V44H47.638ZM47.638 0.599997H47.888V0.349997H47.638V0.599997ZM41.562 0.599997V0.349997H41.312V0.599997H41.562ZM41.562 26.578L41.3207 26.6431L41.812 26.578H41.562ZM34.556 0.599997L34.7974 0.5349L34.7475 0.349997H34.556V0.599997ZM26 0.599997V0.349997H25.75V0.599997H26ZM26 44H25.75V44.25H26V44ZM32.138 44V44.25H32.388V44H32.138ZM32.138 12.566L32.3794 12.5008L31.888 12.566H32.138ZM40.632 44.25H47.638V43.75H40.632V44.25ZM47.888 44V0.599997H47.388V44H47.888ZM47.638 0.349997H41.562V0.849997H47.638V0.349997ZM41.312 0.599997V26.578H41.812V0.599997H41.312ZM41.8034 26.5129L34.7974 0.5349L34.3147 0.665094L41.3207 26.6431L41.8034 26.5129ZM34.556 0.349997H26V0.849997H34.556V0.349997ZM25.75 0.599997V44H26.25V0.599997H25.75ZM26 44.25H32.138V43.75H26V44.25ZM32.388 44V12.566H31.888V44H32.388ZM31.8967 12.6312L40.3907 44.0652L40.8734 43.9348L32.3794 12.5008L31.8967 12.6312ZM52.521 44H52.271V44.25H52.521V44ZM70.563 44V44.25H70.813V44H70.563ZM70.563 37.8H70.813V37.55H70.563V37.8ZM59.341 37.8H59.091V38.05H59.341V37.8ZM59.341 0.599997H59.591V0.349997H59.341V0.599997ZM52.521 0.599997V0.349997H52.271V0.599997H52.521ZM52.521 44.25H70.563V43.75H52.521V44.25ZM70.813 44V37.8H70.313V44H70.813ZM70.563 37.55H59.341V38.05H70.563V37.55ZM59.591 37.8V0.599997H59.091V37.8H59.591ZM59.341 0.349997H52.521V0.849997H59.341V0.349997ZM52.271 0.599997V44H52.771V0.599997H52.271ZM73.5308 44H73.2808V44.25H73.5308V44ZM80.3508 44V44.25H80.6008V44H80.3508ZM80.3508 0.599997H80.6008V0.349997H80.3508V0.599997ZM73.5308 0.599997V0.349997H73.2808V0.599997H73.5308ZM73.5308 44.25H80.3508V43.75H73.5308V44.25ZM80.6008 44V0.599997H80.1008V44H80.6008ZM80.3508 0.349997H73.5308V0.849997H80.3508V0.349997ZM73.2808 0.599997V44H73.7808V0.599997H73.2808ZM99.9074 44L99.6661 44.0652L99.716 44.25H99.9074V44ZM106.913 44V44.25H107.163V44H106.913ZM106.913 0.599997H107.163V0.349997H106.913V0.599997ZM100.837 0.599997V0.349997H100.587V0.599997H100.837ZM100.837 26.578L100.596 26.6431L101.087 26.578H100.837ZM93.8314 0.599997L94.0728 0.5349L94.0229 0.349997H93.8314V0.599997ZM85.2754 0.599997V0.349997H85.0254V0.599997H85.2754ZM85.2754 44H85.0254V44.25H85.2754V44ZM91.4134 44V44.25H91.6634V44H91.4134ZM91.4134 12.566L91.6548 12.5008L91.1634 12.566H91.4134ZM99.9074 44.25H106.913V43.75H99.9074V44.25ZM107.163 44V0.599997H106.663V44H107.163ZM106.913 0.349997H100.837V0.849997H106.913V0.349997ZM100.587 0.599997V26.578H101.087V0.599997H100.587ZM101.079 26.5129L94.0728 0.5349L93.59 0.665094L100.596 26.6431L101.079 26.5129ZM93.8314 0.349997H85.2754V0.849997H93.8314V0.349997ZM85.0254 0.599997V44H85.5254V0.599997H85.0254ZM85.2754 44.25H91.4134V43.75H85.2754V44.25ZM91.6634 44V12.566H91.1634V44H91.6634ZM91.1721 12.6312L99.6661 44.0652L100.149 43.9348L91.6548 12.5008L91.1721 12.6312ZM118.616 6.8V6.55H118.366V6.8H118.616ZM130.396 6.8V7.05H130.646V6.8H130.396ZM130.396 0.599997H130.646V0.349997H130.396V0.599997ZM111.796 0.599997V0.349997H111.546V0.599997H111.796ZM111.796 44H111.546V44.25H111.796V44ZM130.396 44V44.25H130.646V44H130.396ZM130.396 37.8H130.646V37.55H130.396V37.8ZM118.616 37.8H118.366V38.05H118.616V37.8ZM118.616 25.09V24.84H118.366V25.09H118.616ZM127.978 25.09V25.34H128.228V25.09H127.978ZM127.978 18.89H128.228V18.64H127.978V18.89ZM118.616 18.89H118.366V19.14H118.616V18.89ZM118.616 7.05H130.396V6.55H118.616V7.05ZM130.646 6.8V0.599997H130.146V6.8H130.646ZM130.396 0.349997H111.796V0.849997H130.396V0.349997ZM111.546 0.599997V44H112.046V0.599997H111.546ZM111.796 44.25H130.396V43.75H111.796V44.25ZM130.646 44V37.8H130.146V44H130.646ZM130.396 37.55H118.616V38.05H130.396V37.55ZM118.866 37.8V25.09H118.366V37.8H118.866ZM118.616 25.34H127.978V24.84H118.616V25.34ZM128.228 25.09V18.89H127.728V25.09H128.228ZM127.978 18.64H118.616V19.14H127.978V18.64ZM118.866 18.89V6.8H118.366V18.89H118.866ZM161.858 44L161.609 44.0267L161.633 44.25H161.858V44ZM170.91 44V44.25H171.133L171.158 44.0277L170.91 44ZM175.746 0.599997L175.994 0.627683L176.025 0.349997H175.746V0.599997ZM169.794 0.599997V0.349997H169.568L169.545 0.574501L169.794 0.599997ZM166.26 35.072L166.011 35.0966L166.508 35.0975L166.26 35.072ZM162.85 0.599997L163.098 0.575387L163.076 0.349997H162.85V0.599997ZM156.278 0.599997V0.349997H156.05L156.029 0.576103L156.278 0.599997ZM152.992 34.824L152.743 34.8506L153.24 34.8479L152.992 34.824ZM149.334 0.599997L149.582 0.573427L149.558 0.349997H149.334V0.599997ZM142.7 0.599997V0.349997H142.42L142.451 0.627683L142.7 0.599997ZM147.536 44L147.287 44.0277L147.312 44.25H147.536V44ZM156.898 44V44.25H157.122L157.146 44.0267L156.898 44ZM159.378 20.874L159.626 20.8473H159.129L159.378 20.874ZM161.858 44.25H170.91V43.75H161.858V44.25ZM171.158 44.0277L175.994 0.627683L175.497 0.572311L170.661 43.9723L171.158 44.0277ZM175.746 0.349997H169.794V0.849997H175.746V0.349997ZM169.545 0.574501L166.011 35.0465L166.508 35.0975L170.042 0.625493L169.545 0.574501ZM166.508 35.0474L163.098 0.575387L162.601 0.624607L166.011 35.0966L166.508 35.0474ZM162.85 0.349997H156.278V0.849997H162.85V0.349997ZM156.029 0.576103L152.743 34.8001L153.24 34.8479L156.526 0.623891L156.029 0.576103ZM153.24 34.7974L149.582 0.573427L149.085 0.626567L152.743 34.8506L153.24 34.7974ZM149.334 0.349997H142.7V0.849997H149.334V0.349997ZM142.451 0.627683L147.287 44.0277L147.784 43.9723L142.948 0.572311L142.451 0.627683ZM147.536 44.25H156.898V43.75H147.536V44.25ZM157.146 44.0267L159.626 20.9007L159.129 20.8473L156.649 43.9733L157.146 44.0267ZM159.129 20.9007L161.609 44.0267L162.106 43.9733L159.626 20.8473L159.129 20.9007ZM185.697 10.582C185.697 9.06304 186.032 8.06506 186.586 7.4475C187.136 6.83537 187.94 6.554 188.981 6.554V6.054C187.852 6.054 186.889 6.36163 186.214 7.11349C185.544 7.85994 185.197 9.00095 185.197 10.582H185.697ZM188.981 6.554C190.022 6.554 190.826 6.83537 191.376 7.4475C191.93 8.06506 192.265 9.06304 192.265 10.582H192.765C192.765 9.00095 192.418 7.85994 191.748 7.11349C191.073 6.36163 190.11 6.054 188.981 6.054V6.554ZM192.265 10.582V34.018H192.765V10.582H192.265ZM192.265 34.018C192.265 35.537 191.93 36.5349 191.376 37.1525C190.826 37.7646 190.022 38.046 188.981 38.046V38.546C190.11 38.546 191.073 38.2384 191.748 37.4865C192.418 36.7401 192.765 35.599 192.765 34.018H192.265ZM188.981 38.046C187.94 38.046 187.136 37.7646 186.586 37.1525C186.032 36.5349 185.697 35.537 185.697 34.018H185.197C185.197 35.599 185.544 36.7401 186.214 37.4865C186.889 38.2384 187.852 38.546 188.981 38.546V38.046ZM185.697 34.018V10.582H185.197V34.018H185.697ZM178.377 33.584C178.377 37.0977 179.303 39.8952 181.111 41.8154C182.921 43.7379 185.583 44.746 188.981 44.746V44.246C185.683 44.246 183.168 43.2701 181.475 41.4726C179.78 39.6728 178.877 37.0143 178.877 33.584H178.377ZM188.981 44.746C192.379 44.746 195.041 43.7379 196.851 41.8154C198.659 39.8952 199.585 37.0977 199.585 33.584H199.085C199.085 37.0143 198.182 39.6728 196.487 41.4726C194.794 43.2701 192.279 44.246 188.981 44.246V44.746ZM199.585 33.584V11.016H199.085V33.584H199.585ZM199.585 11.016C199.585 7.50228 198.659 4.70484 196.851 2.78461C195.041 0.862049 192.379 -0.146 188.981 -0.146V0.354C192.279 0.354 194.794 1.32995 196.487 3.12739C198.182 4.92715 199.085 7.58571 199.085 11.016H199.585ZM188.981 -0.146C185.583 -0.146 182.921 0.862049 181.111 2.78461C179.303 4.70484 178.377 7.50228 178.377 11.016H178.877C178.877 7.58571 179.78 4.92715 181.475 3.12739C183.168 1.32995 185.683 0.354 188.981 0.354V-0.146ZM178.377 11.016V33.584H178.877V11.016H178.377ZM224.971 44V44.25H225.348L225.201 43.9026L224.971 44ZM219.701 22.796L219.595 22.5697L219.085 22.8092L219.605 23.0266L219.701 22.796ZM203.767 0.599997V0.349997H203.517V0.599997H203.767ZM203.767 44H203.517V44.25H203.767V44ZM210.587 44V44.25H210.837V44H210.587ZM210.587 26.33V26.08H210.337V26.33H210.587ZM218.027 44L217.79 44.0791L217.847 44.25H218.027V44ZM210.587 20.13H210.337V20.38H210.587V20.13ZM210.587 6.8V6.55H210.337V6.8H210.587ZM225.201 43.9026C224.541 42.342 224.477 40.8383 224.477 38.73H223.977C223.977 40.8377 224.037 42.434 224.741 44.0974L225.201 43.9026ZM224.477 38.73V32.034H223.977V38.73H224.477ZM224.477 32.034C224.477 27.4807 223.353 24.0524 219.798 22.5654L219.605 23.0266C222.869 24.3916 223.977 27.5353 223.977 32.034H224.477ZM219.807 23.0223C222.966 21.5397 224.415 18.5103 224.415 13.992H223.915C223.915 18.4017 222.512 21.2003 219.595 22.5697L219.807 23.0223ZM224.415 13.992V10.582H223.915V13.992H224.415ZM224.415 10.582C224.415 7.20144 223.649 4.62866 221.94 2.90405C220.231 1.17903 217.627 0.349997 214.059 0.349997V0.849997C217.559 0.849997 220.008 1.66396 221.585 3.25594C223.163 4.84833 223.915 7.26655 223.915 10.582H224.415ZM214.059 0.349997H203.767V0.849997H214.059V0.349997ZM203.517 0.599997V44H204.017V0.599997H203.517ZM203.767 44.25H210.587V43.75H203.767V44.25ZM210.837 44V26.33H210.337V44H210.837ZM210.587 26.58H212.943V26.08H210.587V26.58ZM212.943 26.58C214.457 26.58 215.484 26.9428 216.145 27.7376C216.817 28.5446 217.157 29.8501 217.157 31.848H217.657C217.657 29.8159 217.316 28.3624 216.53 27.4179C215.734 26.4612 214.529 26.08 212.943 26.08V26.58ZM217.157 31.848V38.668H217.657V31.848H217.157ZM217.157 38.668C217.157 40.4387 217.219 41.5068 217.33 42.2765C217.442 43.0522 217.604 43.52 217.79 44.0791L218.264 43.9209C218.079 43.364 217.93 42.9328 217.825 42.205C217.719 41.4712 217.657 40.4313 217.657 38.668H217.157ZM218.027 44.25H224.971V43.75H218.027V44.25ZM213.873 7.05C215.034 7.05 215.815 7.37516 216.318 8.02284C216.833 8.68525 217.095 9.7326 217.095 11.264H217.595C217.595 9.6954 217.33 8.51075 216.713 7.71616C216.085 6.90684 215.13 6.55 213.873 6.55V7.05ZM217.095 11.264V15.542H217.595V11.264H217.095ZM217.095 15.542C217.095 17.247 216.714 18.316 216.075 18.9622C215.437 19.6072 214.493 19.88 213.253 19.88V20.38C214.555 20.38 215.658 20.0947 216.43 19.3138C217.201 18.534 217.595 17.309 217.595 15.542H217.095ZM213.253 19.88H210.587V20.38H213.253V19.88ZM210.837 20.13V6.8H210.337V20.13H210.837ZM210.587 7.05H213.873V6.55H210.587V7.05ZM244.274 44L244.041 44.0895L244.103 44.25H244.274V44ZM251.28 44V44.25H251.648L251.513 43.9083L251.28 44ZM241.794 19.944L241.57 19.8339L241.521 19.933L241.562 20.0357L241.794 19.944ZM251.28 0.599997L251.505 0.71007L251.681 0.349997H251.28V0.599997ZM244.46 0.599997V0.349997H244.302L244.234 0.493262L244.46 0.599997ZM235.532 19.51H235.282L235.758 19.6167L235.532 19.51ZM235.532 0.599997H235.782V0.349997H235.532V0.599997ZM228.712 0.599997V0.349997H228.462V0.599997H228.712ZM228.712 44H228.462V44.25H228.712V44ZM235.532 44V44.25H235.782V44H235.532ZM235.532 30.67L235.312 30.5527L235.282 30.6077V30.67H235.532ZM237.64 26.702L237.874 26.6125L237.677 26.0998L237.42 26.5847L237.64 26.702ZM244.274 44.25H251.28V43.75H244.274V44.25ZM251.513 43.9083L242.027 19.8523L241.562 20.0357L251.048 44.0917L251.513 43.9083ZM242.019 20.0541L251.505 0.71007L251.056 0.489924L241.57 19.8339L242.019 20.0541ZM251.28 0.349997H244.46V0.849997H251.28V0.349997ZM244.234 0.493262L235.306 19.4033L235.758 19.6167L244.686 0.706732L244.234 0.493262ZM235.782 19.51V0.599997H235.282V19.51H235.782ZM235.532 0.349997H228.712V0.849997H235.532V0.349997ZM228.462 0.599997V44H228.962V0.599997H228.462ZM228.712 44.25H235.532V43.75H228.712V44.25ZM235.782 44V30.67H235.282V44H235.782ZM235.753 30.7873L237.861 26.8193L237.42 26.5847L235.312 30.5527L235.753 30.7873ZM237.407 26.7915L244.041 44.0895L244.508 43.9105L237.874 26.6125L237.407 26.7915ZM259.476 30.918H259.726V30.668H259.476V30.918ZM253.028 30.918V30.668H252.778V30.918H253.028ZM266.854 12.38H266.604V12.63H266.854V12.38ZM273.302 12.38V12.63H273.552V12.38H273.302ZM252.964 11.016C252.964 17.3277 256.368 20.9099 259.709 24.0025C261.386 25.5548 263.03 26.9694 264.263 28.5547C265.489 30.1303 266.294 31.8564 266.294 34.018H266.794C266.794 31.7156 265.932 29.8844 264.658 28.2477C263.392 26.6206 261.704 25.1677 260.048 23.6355C256.725 20.5591 253.464 17.1043 253.464 11.016H252.964ZM266.294 34.018C266.294 35.5372 265.959 36.518 265.406 37.1194C264.858 37.7162 264.054 37.984 263.01 37.984V38.484C264.135 38.484 265.098 38.1938 265.774 37.4576C266.447 36.726 266.794 35.5988 266.794 34.018H266.294ZM263.01 37.984C261.965 37.984 261.161 37.7162 260.613 37.1194C260.061 36.518 259.726 35.5372 259.726 34.018H259.226C259.226 35.5988 259.573 36.726 260.245 37.4576C260.921 38.1938 261.884 38.484 263.01 38.484V37.984ZM259.726 34.018V30.918H259.226V34.018H259.726ZM259.476 30.668H253.028V31.168H259.476V30.668ZM252.778 30.918V33.584H253.278V30.918H252.778ZM252.778 33.584C252.778 37.0945 253.655 39.8917 255.416 41.8129C257.181 43.7377 259.798 44.746 263.196 44.746V44.246C259.898 44.246 257.43 43.2703 255.785 41.4751C254.136 39.6763 253.278 37.0175 253.278 33.584H252.778ZM263.196 44.746C266.594 44.746 269.21 43.7377 270.975 41.8129C272.736 39.8917 273.614 37.0945 273.614 33.584H273.114C273.114 37.0175 272.255 39.6763 270.606 41.4751C268.961 43.2703 266.494 44.246 263.196 44.246V44.746ZM273.614 33.584C273.614 27.2723 270.21 23.6901 266.868 20.5975C265.191 19.0452 263.547 17.6306 262.314 16.0453C261.088 14.4697 260.284 12.7436 260.284 10.582H259.784C259.784 12.8844 260.646 14.7156 261.919 16.3523C263.185 17.9794 264.873 19.4323 266.529 20.9645C269.853 24.0409 273.114 27.4957 273.114 33.584H273.614ZM260.284 10.582C260.284 9.05792 260.59 8.05918 261.115 7.44266C261.633 6.83492 262.403 6.554 263.444 6.554V6.054C262.314 6.054 261.379 6.36208 260.735 7.11833C260.097 7.86581 259.784 9.00607 259.784 10.582H260.284ZM263.444 6.554C264.484 6.554 265.254 6.83492 265.772 7.44266C266.297 8.05918 266.604 9.05792 266.604 10.582H267.104C267.104 9.00607 266.79 7.86581 266.153 7.11833C265.508 6.36208 264.573 6.054 263.444 6.054V6.554ZM266.604 10.582V12.38H267.104V10.582H266.604ZM266.854 12.63H273.302V12.13H266.854V12.63ZM273.552 12.38V11.016H273.052V12.38H273.552ZM273.552 11.016C273.552 7.50652 272.69 4.70968 270.953 2.78833C269.212 0.86278 266.625 -0.146 263.258 -0.146V0.354C266.524 0.354 268.959 1.32922 270.582 3.12367C272.208 4.92231 273.052 7.58148 273.052 11.016H273.552ZM263.258 -0.146C259.89 -0.146 257.303 0.86278 255.562 2.78833C253.825 4.70968 252.964 7.50652 252.964 11.016H253.464C253.464 7.58148 254.307 4.92231 255.933 3.12367C257.556 1.32922 259.991 0.354 263.258 0.354V-0.146ZM284.091 25.4V25.15H283.841V25.4H284.091ZM291.841 25.4H292.091V25.15H291.841V25.4ZM291.841 44H291.591V44.25H291.841V44ZM298.785 44V44.25H299.035V44H298.785ZM298.785 0.599997H299.035V0.349997H298.785V0.599997ZM291.841 0.599997V0.349997H291.591V0.599997H291.841ZM291.841 19.2V19.45H292.091V19.2H291.841ZM284.091 19.2H283.841V19.45H284.091V19.2ZM284.091 0.599997H284.341V0.349997H284.091V0.599997ZM277.271 0.599997V0.349997H277.021V0.599997H277.271ZM277.271 44H277.021V44.25H277.271V44ZM284.091 44V44.25H284.341V44H284.091ZM284.091 25.65H291.841V25.15H284.091V25.65ZM291.591 25.4V44H292.091V25.4H291.591ZM291.841 44.25H298.785V43.75H291.841V44.25ZM299.035 44V0.599997H298.535V44H299.035ZM298.785 0.349997H291.841V0.849997H298.785V0.349997ZM291.591 0.599997V19.2H292.091V0.599997H291.591ZM291.841 18.95H284.091V19.45H291.841V18.95ZM284.341 19.2V0.599997H283.841V19.2H284.341ZM284.091 0.349997H277.271V0.849997H284.091V0.349997ZM277.021 0.599997V44H277.521V0.599997H277.021ZM277.271 44.25H284.091V43.75H277.271V44.25ZM284.341 44V25.4H283.841V44H284.341ZM310.242 10.582C310.242 9.06304 310.577 8.06506 311.131 7.4475C311.681 6.83537 312.485 6.554 313.526 6.554V6.054C312.397 6.054 311.434 6.36163 310.759 7.11349C310.089 7.85994 309.742 9.00095 309.742 10.582H310.242ZM313.526 6.554C314.567 6.554 315.371 6.83537 315.921 7.4475C316.475 8.06506 316.81 9.06304 316.81 10.582H317.31C317.31 9.00095 316.963 7.85994 316.293 7.11349C315.618 6.36163 314.655 6.054 313.526 6.054V6.554ZM316.81 10.582V34.018H317.31V10.582H316.81ZM316.81 34.018C316.81 35.537 316.475 36.5349 315.921 37.1525C315.371 37.7646 314.567 38.046 313.526 38.046V38.546C314.655 38.546 315.618 38.2384 316.293 37.4865C316.963 36.7401 317.31 35.599 317.31 34.018H316.81ZM313.526 38.046C312.485 38.046 311.681 37.7646 311.131 37.1525C310.577 36.5349 310.242 35.537 310.242 34.018H309.742C309.742 35.599 310.089 36.7401 310.759 37.4865C311.434 38.2384 312.397 38.546 313.526 38.546V38.046ZM310.242 34.018V10.582H309.742V34.018H310.242ZM302.922 33.584C302.922 37.0977 303.848 39.8952 305.656 41.8154C307.466 43.7379 310.128 44.746 313.526 44.746V44.246C310.228 44.246 307.713 43.2701 306.02 41.4726C304.325 39.6728 303.422 37.0143 303.422 33.584H302.922ZM313.526 44.746C316.924 44.746 319.586 43.7379 321.396 41.8154C323.204 39.8952 324.13 37.0977 324.13 33.584H323.63C323.63 37.0143 322.727 39.6728 321.032 41.4726C319.339 43.2701 316.824 44.246 313.526 44.246V44.746ZM324.13 33.584V11.016H323.63V33.584H324.13ZM324.13 11.016C324.13 7.50228 323.204 4.70484 321.396 2.78461C319.586 0.862049 316.924 -0.146 313.526 -0.146V0.354C316.824 0.354 319.339 1.32995 321.032 3.12739C322.727 4.92715 323.63 7.58571 323.63 11.016H324.13ZM313.526 -0.146C310.128 -0.146 307.466 0.862049 305.656 2.78461C303.848 4.70484 302.922 7.50228 302.922 11.016H303.422C303.422 7.58571 304.325 4.92715 306.02 3.12739C307.713 1.32995 310.228 0.354 313.526 0.354V-0.146ZM302.922 11.016V33.584H303.422V11.016H302.922ZM328.312 0.599997V0.349997H328.062V0.599997H328.312ZM328.312 44H328.062V44.25H328.312V44ZM335.132 44V44.25H335.382V44H335.132ZM335.132 27.694V27.444H334.882V27.694H335.132ZM335.132 21.494H334.882V21.744H335.132V21.494ZM335.132 6.8V6.55H334.882V6.8H335.132ZM338.356 0.349997H328.312V0.849997H338.356V0.349997ZM328.062 0.599997V44H328.562V0.599997H328.062ZM328.312 44.25H335.132V43.75H328.312V44.25ZM335.382 44V27.694H334.882V44H335.382ZM335.132 27.944H338.356V27.444H335.132V27.944ZM338.356 27.944C341.811 27.944 344.43 26.9849 346.18 25.1054C347.928 23.2291 348.774 20.4764 348.774 16.968H348.274C348.274 20.4036 347.446 23.0139 345.815 24.7646C344.187 26.5121 341.721 27.444 338.356 27.444V27.944ZM348.774 16.968V11.326H348.274V16.968H348.774ZM348.774 11.326C348.774 7.81764 347.928 5.06486 346.18 3.18858C344.43 1.30913 341.811 0.349997 338.356 0.349997V0.849997C341.721 0.849997 344.187 1.78186 345.815 3.52941C347.446 5.28014 348.274 7.89035 348.274 11.326H348.774ZM338.356 7.05C339.407 7.05 340.159 7.29037 340.657 7.84973C341.162 8.41688 341.454 9.36421 341.454 10.892H341.954C341.954 9.31978 341.657 8.22111 341.031 7.51727C340.397 6.80562 339.475 6.55 338.356 6.55V7.05ZM341.454 10.892V17.402H341.954V10.892H341.454ZM341.454 17.402C341.454 18.9298 341.162 19.8771 340.657 20.4443C340.159 21.0036 339.407 21.244 338.356 21.244V21.744C339.475 21.744 340.397 21.4884 341.031 20.7767C341.657 20.0729 341.954 18.9742 341.954 17.402H341.454ZM338.356 21.244H335.132V21.744H338.356V21.244ZM335.382 21.494V6.8H334.882V21.494H335.382ZM335.132 7.05H338.356V6.55H335.132V7.05Z" fill="white"/> </svg>