<?xml version="1.0" encoding="UTF-8"?>
<svg xmlns="http://www.w3.org/2000/svg" width="177" height="45" viewBox="0 0 177 45" fill="none"> <path d="M0.48 0.599997V0.349997H0.23V0.599997H0.48ZM0.48 44H0.23V44.25H0.48V44ZM7.3 44V44.25H7.55V44H7.3ZM7.3 27.694V27.444H7.05V27.694H7.3ZM7.3 21.494H7.05V21.744H7.3V21.494ZM7.3 6.8V6.55H7.05V6.8H7.3ZM10.524 0.349997H0.48V0.849997H10.524V0.349997ZM0.23 0.599997V44H0.73V0.599997H0.23ZM0.48 44.25H7.3V43.75H0.48V44.25ZM7.55 44V27.694H7.05V44H7.55ZM7.3 27.944H10.524V27.444H7.3V27.944ZM10.524 27.944C13.9795 27.944 16.5975 26.9849 18.3484 25.1054C20.0964 23.2291 20.942 20.4764 20.942 16.968H20.442C20.442 20.4036 19.6136 23.0139 17.9826 24.7646C16.3545 26.5121 13.8885 27.444 10.524 27.444V27.944ZM20.942 16.968V11.326H20.442V16.968H20.942ZM20.942 11.326C20.942 7.81764 20.0964 5.06486 18.3484 3.18858C16.5975 1.30913 13.9795 0.349997 10.524 0.349997V0.849997C13.8885 0.849997 16.3545 1.78186 17.9826 3.52941C19.6136 5.28014 20.442 7.89035 20.442 11.326H20.942ZM10.524 7.05C11.5754 7.05 12.3271 7.29037 12.825 7.84973C13.3299 8.41688 13.622 9.36421 13.622 10.892H14.122C14.122 9.31978 13.8251 8.22111 13.1985 7.51727C12.5649 6.80562 11.6426 6.55 10.524 6.55V7.05ZM13.622 10.892V17.402H14.122V10.892H13.622ZM13.622 17.402C13.622 18.9298 13.3299 19.8771 12.825 20.4443C12.3271 21.0036 11.5754 21.244 10.524 21.244V21.744C11.6426 21.744 12.5649 21.4884 13.1985 20.7767C13.8251 20.0729 14.122 18.9742 14.122 17.402H13.622ZM10.524 21.244H7.3V21.744H10.524V21.244ZM7.55 21.494V6.8H7.05V21.494H7.55ZM7.3 7.05H10.524V6.55H7.3V7.05ZM45.3578 44V44.25H45.7351L45.5881 43.9026L45.3578 44ZM40.0878 22.796L39.9816 22.5697L39.4714 22.8092L39.9914 23.0266L40.0878 22.796ZM24.1538 0.599997V0.349997H23.9038V0.599997H24.1538ZM24.1538 44H23.9038V44.25H24.1538V44ZM30.9738 44V44.25H31.2238V44H30.9738ZM30.9738 26.33V26.08H30.7238V26.33H30.9738ZM38.4138 44L38.1767 44.0791L38.2336 44.25H38.4138V44ZM30.9738 20.13H30.7238V20.38H30.9738V20.13ZM30.9738 6.8V6.55H30.7238V6.8H30.9738ZM45.5881 43.9026C44.9278 42.342 44.8638 40.8383 44.8638 38.73H44.3638C44.3638 40.8377 44.4239 42.434 45.1276 44.0974L45.5881 43.9026ZM44.8638 38.73V32.034H44.3638V38.73H44.8638ZM44.8638 32.034C44.8638 27.4807 43.7402 24.0524 40.1843 22.5654L39.9914 23.0266C43.2555 24.3916 44.3638 27.5353 44.3638 32.034H44.8638ZM40.1941 23.0223C43.3527 21.5397 44.8018 18.5103 44.8018 13.992H44.3018C44.3018 18.4017 42.8989 21.2003 39.9816 22.5697L40.1941 23.0223ZM44.8018 13.992V10.582H44.3018V13.992H44.8018ZM44.8018 10.582C44.8018 7.20144 44.0354 4.62866 42.3269 2.90405C40.618 1.17903 38.0137 0.349997 34.4458 0.349997V0.849997C37.946 0.849997 40.3946 1.66396 41.9717 3.25594C43.5492 4.84833 44.3018 7.26655 44.3018 10.582H44.8018ZM34.4458 0.349997H24.1538V0.849997H34.4458V0.349997ZM23.9038 0.599997V44H24.4038V0.599997H23.9038ZM24.1538 44.25H30.9738V43.75H24.1538V44.25ZM31.2238 44V26.33H30.7238V44H31.2238ZM30.9738 26.58H33.3298V26.08H30.9738V26.58ZM33.3298 26.58C34.8434 26.58 35.871 26.9428 36.5321 27.7376C37.2034 28.5446 37.5438 29.8501 37.5438 31.848H38.0438C38.0438 29.8159 37.7022 28.3624 36.9165 27.4179C36.1207 26.4612 34.9162 26.08 33.3298 26.08V26.58ZM37.5438 31.848V38.668H38.0438V31.848H37.5438ZM37.5438 38.668C37.5438 40.4387 37.6058 41.5068 37.7169 42.2765C37.8289 43.0522 37.9903 43.52 38.1767 44.0791L38.651 43.9209C38.4653 43.364 38.3168 42.9328 38.2118 42.205C38.1058 41.4712 38.0438 40.4313 38.0438 38.668H37.5438ZM38.4138 44.25H45.3578V43.75H38.4138V44.25ZM34.2598 7.05C35.4208 7.05 36.2021 7.37516 36.7051 8.02284C37.2196 8.68525 37.4818 9.7326 37.4818 11.264H37.9818C37.9818 9.6954 37.7171 8.51075 37.1 7.71616C36.4715 6.90684 35.5169 6.55 34.2598 6.55V7.05ZM37.4818 11.264V15.542H37.9818V11.264H37.4818ZM37.4818 15.542C37.4818 17.247 37.1005 18.316 36.4613 18.9622C35.8233 19.6072 34.8797 19.88 33.6398 19.88V20.38C34.9419 20.38 36.0444 20.0947 36.8168 19.3138C37.5881 18.534 37.9818 17.309 37.9818 15.542H37.4818ZM33.6398 19.88H30.9738V20.38H33.6398V19.88ZM31.2238 20.13V6.8H30.7238V20.13H31.2238ZM30.9738 7.05H34.2598V6.55H30.9738V7.05ZM55.6111 10.582C55.6111 9.06304 55.946 8.06506 56.5004 7.4475C57.05 6.83537 57.8544 6.554 58.8951 6.554V6.054C57.7658 6.054 56.8033 6.36163 56.1284 7.11349C55.4583 7.85994 55.1111 9.00095 55.1111 10.582H55.6111ZM58.8951 6.554C59.9358 6.554 60.7403 6.83537 61.2899 7.4475C61.8443 8.06506 62.1791 9.06304 62.1791 10.582H62.6791C62.6791 9.00095 62.332 7.85994 61.6619 7.11349C60.987 6.36163 60.0244 6.054 58.8951 6.054V6.554ZM62.1791 10.582V34.018H62.6791V10.582H62.1791ZM62.1791 34.018C62.1791 35.537 61.8443 36.5349 61.2899 37.1525C60.7403 37.7646 59.9358 38.046 58.8951 38.046V38.546C60.0244 38.546 60.987 38.2384 61.6619 37.4865C62.332 36.7401 62.6791 35.599 62.6791 34.018H62.1791ZM58.8951 38.046C57.8544 38.046 57.05 37.7646 56.5004 37.1525C55.946 36.5349 55.6111 35.537 55.6111 34.018H55.1111C55.1111 35.599 55.4583 36.7401 56.1284 37.4865C56.8033 38.2384 57.7658 38.546 58.8951 38.546V38.046ZM55.6111 34.018V10.582H55.1111V34.018H55.6111ZM48.2911 33.584C48.2911 37.0977 49.2169 39.8952 51.0251 41.8154C52.8355 43.7379 55.4973 44.746 58.8951 44.746V44.246C55.5969 44.246 53.0817 43.2701 51.3891 41.4726C49.6944 39.6728 48.7911 37.0143 48.7911 33.584H48.2911ZM58.8951 44.746C62.2929 44.746 64.9547 43.7379 66.7651 41.8154C68.5734 39.8952 69.4991 37.0977 69.4991 33.584H68.9991C68.9991 37.0143 68.0959 39.6728 66.4011 41.4726C64.7085 43.2701 62.1933 44.246 58.8951 44.246V44.746ZM69.4991 33.584V11.016H68.9991V33.584H69.4991ZM69.4991 11.016C69.4991 7.50228 68.5734 4.70484 66.7651 2.78461C64.9547 0.862049 62.2929 -0.146 58.8951 -0.146V0.354C62.1933 0.354 64.7085 1.32995 66.4011 3.12739C68.0959 4.92715 68.9991 7.58571 68.9991 11.016H69.4991ZM58.8951 -0.146C55.4973 -0.146 52.8355 0.862049 51.0251 2.78461C49.2169 4.70484 48.2911 7.50228 48.2911 11.016H48.7911C48.7911 7.58571 49.6944 4.92715 51.3891 3.12739C53.0817 1.32995 55.5969 0.354 58.8951 0.354V-0.146ZM48.2911 11.016V33.584H48.7911V11.016H48.2911ZM83.9112 26.02H83.6612V26.27H83.9112V26.02ZM87.0112 26.02H87.2612V25.77H87.0112V26.02ZM87.0112 15.232H86.7612V15.482H87.0112V15.232ZM93.4592 15.232V15.482H93.7092V15.232H93.4592ZM93.4592 19.82H93.7092V19.57H93.4592V19.82ZM83.9112 19.82V19.57H83.6612V19.82H83.9112ZM83.9112 26.27H87.0112V25.77H83.9112V26.27ZM86.7612 26.02V34.018H87.2612V26.02H86.7612ZM86.7612 34.018C86.7612 35.5372 86.4262 36.518 85.8738 37.1194C85.3256 37.7162 84.5214 37.984 83.4772 37.984V38.484C84.6029 38.484 85.5657 38.1938 86.242 37.4576C86.9141 36.726 87.2612 35.5988 87.2612 34.018H86.7612ZM83.4772 37.984C82.4329 37.984 81.6287 37.7162 81.0805 37.1194C80.5281 36.518 80.1932 35.5372 80.1932 34.018H79.6932C79.6932 35.5988 80.0402 36.726 80.7123 37.4576C81.3886 38.1938 82.3514 38.484 83.4772 38.484V37.984ZM80.1932 34.018V10.582H79.6932V34.018H80.1932ZM80.1932 10.582C80.1932 9.06304 80.5281 8.06506 81.0825 7.4475C81.632 6.83537 82.4365 6.554 83.4772 6.554V6.054C82.3479 6.054 81.3854 6.36163 80.7104 7.11349C80.0403 7.85994 79.6932 9.00095 79.6932 10.582H80.1932ZM83.4772 6.554C84.5179 6.554 85.3224 6.83537 85.8719 7.4475C86.4263 8.06506 86.7612 9.06304 86.7612 10.582H87.2612C87.2612 9.00095 86.9141 7.85994 86.244 7.11349C85.569 6.36163 84.6065 6.054 83.4772 6.054V6.554ZM86.7612 10.582V15.232H87.2612V10.582H86.7612ZM87.0112 15.482H93.4592V14.982H87.0112V15.482ZM93.7092 15.232V11.016H93.2092V15.232H93.7092ZM93.7092 11.016C93.7092 7.50546 92.8316 4.70825 91.0705 2.78707C89.3061 0.862289 86.6892 -0.146 83.2912 -0.146V0.354C86.5891 0.354 89.0563 1.32971 90.7019 3.12493C92.3508 4.92374 93.2092 7.58253 93.2092 11.016H93.7092ZM83.2912 -0.146C79.8931 -0.146 77.2763 0.862289 75.5119 2.78707C73.7508 4.70825 72.8732 7.50546 72.8732 11.016H73.3732C73.3732 7.58253 74.2315 4.92374 75.8805 3.12493C77.5261 1.32971 79.9932 0.354 83.2912 0.354V-0.146ZM72.8732 11.016V33.584H73.3732V11.016H72.8732ZM72.8732 33.584C72.8732 37.0945 73.7508 39.8917 75.5119 41.8129C77.2763 43.7377 79.8931 44.746 83.2912 44.746V44.246C79.9932 44.246 77.5261 43.2703 75.8805 41.4751C74.2315 39.6763 73.3732 37.0175 73.3732 33.584H72.8732ZM83.2912 44.746C86.6892 44.746 89.3061 43.7377 91.0705 41.8129C92.8316 39.8917 93.7092 37.0945 93.7092 33.584H93.2092C93.2092 37.0175 92.3508 39.6763 90.7019 41.4751C89.0563 43.2703 86.5891 44.246 83.2912 44.246V44.746ZM93.7092 33.584V19.82H93.2092V33.584H93.7092ZM93.4592 19.57H83.9112V20.07H93.4592V19.57ZM83.6612 19.82V26.02H84.1612V19.82H83.6612ZM119.043 44V44.25H119.421L119.274 43.9026L119.043 44ZM113.773 22.796L113.667 22.5697L113.157 22.8092L113.677 23.0266L113.773 22.796ZM97.8394 0.599997V0.349997H97.5894V0.599997H97.8394ZM97.8394 44H97.5894V44.25H97.8394V44ZM104.659 44V44.25H104.909V44H104.659ZM104.659 26.33V26.08H104.409V26.33H104.659ZM112.099 44L111.862 44.0791L111.919 44.25H112.099V44ZM104.659 20.13H104.409V20.38H104.659V20.13ZM104.659 6.8V6.55H104.409V6.8H104.659ZM119.274 43.9026C118.613 42.342 118.549 40.8383 118.549 38.73H118.049C118.049 40.8377 118.109 42.434 118.813 44.0974L119.274 43.9026ZM118.549 38.73V32.034H118.049V38.73H118.549ZM118.549 32.034C118.549 27.4807 117.426 24.0524 113.87 22.5654L113.677 23.0266C116.941 24.3916 118.049 27.5353 118.049 32.034H118.549ZM113.88 23.0223C117.038 21.5397 118.487 18.5103 118.487 13.992H117.987C117.987 18.4017 116.584 21.2003 113.667 22.5697L113.88 23.0223ZM118.487 13.992V10.582H117.987V13.992H118.487ZM118.487 10.582C118.487 7.20144 117.721 4.62866 116.012 2.90405C114.304 1.17903 111.699 0.349997 108.131 0.349997V0.849997C111.632 0.849997 114.08 1.66396 115.657 3.25594C117.235 4.84833 117.987 7.26655 117.987 10.582H118.487ZM108.131 0.349997H97.8394V0.849997H108.131V0.349997ZM97.5894 0.599997V44H98.0894V0.599997H97.5894ZM97.8394 44.25H104.659V43.75H97.8394V44.25ZM104.909 44V26.33H104.409V44H104.909ZM104.659 26.58H107.015V26.08H104.659V26.58ZM107.015 26.58C108.529 26.58 109.557 26.9428 110.218 27.7376C110.889 28.5446 111.229 29.8501 111.229 31.848H111.729C111.729 29.8159 111.388 28.3624 110.602 27.4179C109.806 26.4612 108.602 26.08 107.015 26.08V26.58ZM111.229 31.848V38.668H111.729V31.848H111.229ZM111.229 38.668C111.229 40.4387 111.291 41.5068 111.402 42.2765C111.514 43.0522 111.676 43.52 111.862 44.0791L112.337 43.9209C112.151 43.364 112.002 42.9328 111.897 42.205C111.791 41.4712 111.729 40.4313 111.729 38.668H111.229ZM112.099 44.25H119.043V43.75H112.099V44.25ZM107.945 7.05C109.106 7.05 109.888 7.37516 110.391 8.02284C110.905 8.68525 111.167 9.7326 111.167 11.264H111.667C111.667 9.6954 111.403 8.51075 110.786 7.71616C110.157 6.90684 109.202 6.55 107.945 6.55V7.05ZM111.167 11.264V15.542H111.667V11.264H111.167ZM111.167 15.542C111.167 17.247 110.786 18.316 110.147 18.9622C109.509 19.6072 108.565 19.88 107.325 19.88V20.38C108.627 20.38 109.73 20.0947 110.502 19.3138C111.274 18.534 111.667 17.309 111.667 15.542H111.167ZM107.325 19.88H104.659V20.38H107.325V19.88ZM104.909 20.13V6.8H104.409V20.13H104.909ZM104.659 7.05H107.945V6.55H104.659V7.05ZM137.913 0.599997L138.16 0.560499L138.126 0.349997H137.913V0.599997ZM127.931 0.599997V0.349997H127.718L127.684 0.560499L127.931 0.599997ZM120.987 44L120.74 43.9605L120.694 44.25H120.987V44ZM127.249 44V44.25H127.464L127.496 44.037L127.249 44ZM128.427 36.126V35.876H128.211L128.179 36.089L128.427 36.126ZM136.797 36.126L137.044 36.089L137.012 35.876H136.797V36.126ZM137.975 44L137.727 44.037L137.759 44.25H137.975V44ZM144.857 44V44.25H145.15L145.104 43.9605L144.857 44ZM132.581 8.288L132.828 8.25098H132.333L132.581 8.288ZM135.867 30.236V30.486H136.157L136.114 30.199L135.867 30.236ZM129.295 30.236L129.047 30.199L129.004 30.486H129.295V30.236ZM137.913 0.349997H127.931V0.849997H137.913V0.349997ZM127.684 0.560499L120.74 43.9605L121.234 44.0395L128.178 0.639495L127.684 0.560499ZM120.987 44.25H127.249V43.75H120.987V44.25ZM127.496 44.037L128.674 36.163L128.179 36.089L127.001 43.963L127.496 44.037ZM128.427 36.376H136.797V35.876H128.427V36.376ZM136.549 36.163L137.727 44.037L138.222 43.963L137.044 36.089L136.549 36.163ZM137.975 44.25H144.857V43.75H137.975V44.25ZM145.104 43.9605L138.16 0.560499L137.666 0.639495L144.61 44.0395L145.104 43.9605ZM132.333 8.32501L135.619 30.273L136.114 30.199L132.828 8.25098L132.333 8.32501ZM135.867 29.986H129.295V30.486H135.867V29.986ZM129.542 30.273L132.828 8.32501L132.333 8.25098L129.047 30.199L129.542 30.273ZM157.457 0.599997L157.703 0.559783L157.669 0.349997H157.457V0.599997ZM147.971 0.599997V0.349997H147.721V0.599997H147.971ZM147.971 44H147.721V44.25H147.971V44ZM153.923 44V44.25H154.173V44H153.923ZM153.923 13.31L154.169 13.2691L153.673 13.31H153.923ZM159.007 44L158.76 44.0409L158.795 44.25H159.007V44ZM165.455 44V44.25H165.67L165.702 44.0374L165.455 44ZM170.167 12.876H170.417L169.92 12.8386L170.167 12.876ZM170.167 44H169.917V44.25H170.167V44ZM176.615 44V44.25H176.865V44H176.615ZM176.615 0.599997H176.865V0.349997H176.615V0.599997ZM167.129 0.599997V0.349997H166.914L166.882 0.562693L167.129 0.599997ZM162.479 31.414L162.232 31.4542L162.726 31.4513L162.479 31.414ZM157.457 0.349997H147.971V0.849997H157.457V0.349997ZM147.721 0.599997V44H148.221V0.599997H147.721ZM147.971 44.25H153.923V43.75H147.971V44.25ZM154.173 44V13.31H153.673V44H154.173ZM153.676 13.3509L158.76 44.0409L159.253 43.9591L154.169 13.2691L153.676 13.3509ZM159.007 44.25H165.455V43.75H159.007V44.25ZM165.702 44.0374L170.414 12.9134L169.92 12.8386L165.208 43.9626L165.702 44.0374ZM169.917 12.876V44H170.417V12.876H169.917ZM170.167 44.25H176.615V43.75H170.167V44.25ZM176.865 44V0.599997H176.365V44H176.865ZM176.615 0.349997H167.129V0.849997H176.615V0.349997ZM166.882 0.562693L162.232 31.3767L162.726 31.4513L167.376 0.637301L166.882 0.562693ZM162.725 31.3738L157.703 0.559783L157.21 0.640211L162.232 31.4542L162.725 31.3738Z" fill="white"/> </svg>